<?xml version="1.0" standalone="no"?>
<!DOCTYPE svg PUBLIC "-//W3C//DTD SVG 20010904//EN"
 "http://www.w3.org/TR/2001/REC-SVG-20010904/DTD/svg10.dtd">
<svg version="1.0" xmlns="http://www.w3.org/2000/svg"
 width="1000.000000pt" height="800.000000pt" viewBox="0 0 1000.000000 800.000000"
 preserveAspectRatio="xMidYMid meet">
<metadata>
Created by potrace 1.15, written by Peter Selinger 2001-2017
</metadata>
<g transform="translate(0.000000,800.000000) scale(0.100000,-0.100000)"
fill="#000000" stroke="none">
<path d="M0 4000 l0 -4000 885 0 885 0 42 39 42 40 -33 30 c-18 17 -30 35 -27
40 4 5 -3 12 -14 16 -11 3 -20 11 -20 18 0 8 -3 8 -12 -1 -7 -7 -23 -12 -35
-12 -13 0 -37 -7 -53 -15 -22 -11 -30 -12 -30 -3 0 9 -3 9 -11 1 -16 -16 -39
-5 -39 18 0 12 7 19 20 19 26 0 112 83 105 102 -7 18 -49 36 -105 44 -45 7
-70 19 -70 34 0 5 37 23 83 40 54 21 93 43 115 66 18 19 37 34 41 34 4 0 21
11 37 25 16 14 33 25 37 25 5 0 5 5 2 10 -3 6 1 10 10 10 9 0 27 11 41 25 14
14 30 25 35 25 6 0 9 6 6 13 -2 6 -10 11 -18 9 -20 -5 -59 7 -59 18 0 17 60
48 81 43 12 -4 21 1 25 13 3 11 9 26 13 34 5 10 1 18 -14 26 -36 19 -159 -21
-186 -60 -4 -5 -13 -5 -20 -1 -8 5 -11 5 -7 1 3 -4 -11 -24 -31 -44 -21 -20
-40 -42 -42 -47 -5 -13 -94 -60 -131 -69 -18 -4 -28 -2 -28 5 0 8 -4 8 -15 -1
-8 -6 -18 -9 -22 -7 -5 3 -39 -5 -77 -18 -60 -20 -72 -22 -89 -10 -11 8 -34
12 -56 9 -34 -4 -35 -4 -11 8 14 7 30 18 37 24 6 6 41 24 77 39 36 15 66 32
66 37 0 4 7 8 16 8 26 0 94 78 94 108 0 27 -1 27 -62 28 -35 0 -66 -4 -69 -9
-4 -5 -12 -6 -19 -2 -7 4 -8 10 -3 14 13 9 43 54 43 64 0 6 -33 6 -77 2 -131
-14 -143 -13 -143 4 0 9 16 25 35 35 19 11 35 23 35 28 0 4 5 8 10 8 17 0 100
42 100 50 0 5 -12 8 -27 8 -16 0 -42 2 -60 6 -24 6 -30 11 -26 24 3 9 3 14 -2
10 -4 -4 -14 -3 -22 3 -7 7 -46 11 -89 10 -71 -1 -128 9 -164 30 -8 5 -22 12
-30 15 -8 4 -35 15 -58 27 l-44 20 28 22 c30 24 104 45 158 45 35 0 80 26 71
41 -4 5 -17 9 -31 9 -13 0 -24 4 -24 9 0 11 -56 22 -135 26 -85 5 -155 16
-161 26 -3 5 -19 9 -37 9 -29 0 -30 1 -11 15 10 8 26 15 34 15 8 0 31 8 50 19
19 10 52 24 73 30 20 7 37 18 37 24 0 7 9 23 19 36 10 14 17 31 14 38 -3 7 0
13 6 13 21 0 11 19 -11 22 -19 2 -23 9 -23 40 0 25 -6 42 -18 51 -18 13 -18
15 9 60 16 26 35 47 41 47 7 0 12 3 10 8 -1 4 8 20 20 36 13 16 23 25 23 20 0
-5 5 -1 11 9 6 9 14 15 20 12 5 -4 9 -2 9 3 0 4 27 21 60 37 59 28 75 45 45
45 -9 0 -18 6 -21 13 -5 15 -62 10 -140 -12 -60 -17 -60 -16 -37 47 3 7 -3 12
-16 12 -14 0 -21 6 -21 19 0 21 60 91 79 91 7 0 9 5 6 10 -3 6 -19 10 -35 10
-42 0 -61 23 -50 61 5 18 16 40 25 49 9 10 15 21 13 26 -3 9 8 21 94 112 23
23 38 45 35 49 -10 10 -115 26 -182 28 -106 3 -103 1 -55 45 37 34 41 42 30
55 -7 9 -23 15 -34 14 -34 -2 -46 0 -46 11 0 5 11 12 24 16 14 3 27 12 30 20
3 8 17 14 31 14 22 0 25 4 26 38 3 62 4 66 13 81 6 10 6 12 -2 7 -16 -10 -85
21 -80 36 3 7 17 14 31 16 15 2 27 10 27 18 0 9 11 14 35 14 33 0 34 1 25 26
-12 31 -12 37 -1 30 5 -3 8 2 7 11 0 11 16 27 44 43 89 49 95 56 80 85 -7 14
-20 25 -28 25 -20 0 -188 -77 -230 -105 -20 -14 -38 -22 -41 -20 -5 5 10 20
68 68 33 28 33 28 7 21 -26 -6 -24 -3 18 41 26 26 44 50 41 53 -3 3 2 14 12
24 15 17 15 18 -3 19 -15 1 -13 3 5 8 31 8 40 31 12 31 -12 0 -21 5 -21 10 0
6 -7 10 -15 10 -8 0 -19 9 -25 19 -8 16 -3 29 30 70 22 28 40 55 40 61 0 9
-42 16 -65 10 -55 -14 -100 -18 -112 -11 -13 7 -12 12 8 30 43 40 170 86 188
68 14 -14 61 10 61 31 0 7 10 22 22 33 l23 18 -28 1 c-16 0 -26 -4 -23 -8 7
-12 -81 -40 -129 -41 -26 0 -48 6 -63 19 l-23 19 21 40 20 41 -34 0 c-19 0
-41 3 -50 6 -14 5 -13 9 5 32 l20 27 -23 10 c-13 5 -29 15 -35 21 -7 7 -43 22
-80 33 -105 33 -244 83 -240 87 1 2 47 -11 101 -27 106 -33 144 -34 226 -6 25
9 58 18 73 22 31 6 50 41 36 67 -10 18 -5 20 58 33 34 7 68 35 42 35 -8 0 -25
-6 -39 -13 -46 -24 -72 -27 -102 -9 -44 26 -36 47 28 80 40 20 59 43 47 56 -4
3 -26 6 -50 6 -37 0 -44 3 -41 18 2 9 10 17 18 17 8 0 20 3 25 6 6 3 32 7 60
8 32 2 53 9 61 19 15 20 9 32 -14 32 -28 0 -49 49 -37 88 5 17 13 32 18 32 16
0 32 25 33 52 1 15 -3 26 -8 25 -6 -1 -13 4 -15 11 -3 6 1 12 8 12 7 0 5 6 -6
14 -18 13 -18 14 1 24 30 16 24 56 -15 97 -18 20 -31 39 -27 42 3 4 -2 15 -11
25 -16 17 -16 18 0 12 12 -4 20 2 29 21 11 24 10 29 -7 41 -18 13 -18 15 -2
31 9 9 34 17 59 18 63 3 88 14 99 43 8 20 7 28 -7 35 -12 7 -13 11 -4 17 8 5
-4 11 -31 15 -24 4 -52 12 -62 17 -18 9 -18 10 2 29 11 10 24 19 29 19 14 0
58 54 58 69 -1 8 -15 18 -31 23 -34 8 -78 59 -70 81 3 7 40 22 83 32 87 22
120 45 97 69 -11 11 -12 16 -2 19 6 3 -5 6 -25 6 -50 1 -56 17 -13 35 22 10
35 22 35 33 0 25 19 43 45 43 11 0 29 7 39 15 15 12 17 17 7 29 -10 11 -10 20
-1 37 11 20 17 21 84 15 136 -13 139 -13 168 15 14 14 40 32 57 39 17 7 31 17
31 22 0 6 10 8 23 5 30 -6 73 7 69 22 -1 7 2 19 8 25 5 7 7 16 3 19 -3 4 1 7
10 7 26 0 20 20 -5 21 -22 0 -22 1 -3 9 11 5 16 9 10 10 -5 0 -2 5 8 11 9 5
17 20 17 33 0 18 7 25 28 29 34 7 151 1 175 -8 10 -4 17 -3 17 4 0 6 -7 11
-16 11 -9 0 -14 6 -12 12 9 26 -43 52 -97 51 -64 -2 -85 8 -65 32 10 13 28 16
74 14 34 -1 102 -1 152 0 83 1 92 3 97 21 4 15 0 20 -14 20 -22 0 -24 11 -6
29 10 10 1 11 -43 6 -60 -7 -110 6 -110 28 0 23 41 68 59 66 23 -4 61 11 61
23 0 20 34 37 48 25 7 -6 35 -10 62 -8 49 2 75 -14 49 -30 -10 -6 -8 -9 10 -9
16 0 21 -4 17 -15 -4 -11 2 -15 24 -15 17 0 30 -5 30 -11 0 -16 21 1 29 24 6
15 22 24 55 32 56 12 61 27 11 39 -19 4 -40 17 -46 27 -19 37 -99 64 -99 34 0
-18 -16 -20 -26 -4 -3 6 -1 15 5 19 9 5 8 10 -4 20 -8 7 -15 18 -15 25 0 8 -6
16 -12 18 -7 3 -3 6 9 6 12 1 25 -4 29 -10 3 -6 15 -8 26 -6 16 5 19 2 15 -14
-6 -23 -9 -23 41 1 22 11 47 20 55 20 17 0 43 30 43 50 -1 18 -79 41 -117 35
-18 -3 -29 0 -33 10 -3 8 -28 25 -56 37 -27 12 -50 25 -50 30 0 9 81 1 124
-13 16 -5 34 -5 40 0 15 11 74 12 81 0 10 -15 35 -10 29 6 -4 10 0 15 14 15
26 0 124 -31 139 -45 7 -5 19 -16 27 -22 17 -14 58 -3 72 18 5 9 2 10 -9 6
-16 -6 -67 12 -67 24 0 4 14 9 31 11 23 4 34 -1 49 -19 10 -12 20 -23 23 -23
10 0 0 34 -11 38 -7 2 -12 8 -12 13 0 14 52 10 80 -6 14 -8 40 -14 58 -15 30
0 32 2 22 20 -6 11 -15 18 -20 15 -5 -3 -11 -1 -15 4 -3 5 15 13 40 17 25 3
47 9 50 13 2 4 -20 19 -49 34 -52 27 -102 33 -141 18 -19 -8 -75 7 -75 21 0 4
7 11 15 16 9 4 18 22 20 39 3 25 -1 33 -21 42 -14 6 -36 11 -49 11 -13 0 -27
5 -30 10 -3 6 -16 10 -28 10 -21 1 -21 2 -4 14 16 13 16 15 -8 30 -15 10 -32
15 -38 13 -18 -6 -47 11 -47 28 0 8 -4 15 -10 15 -16 0 -50 42 -42 54 3 6 7
18 7 26 0 21 30 24 48 5 9 -8 44 -24 78 -35 34 -11 67 -27 73 -36 13 -16 96
-47 156 -57 l35 -6 -24 17 c-13 9 -41 34 -63 55 -47 45 -99 68 -156 69 -37 1
-45 5 -53 25 -16 43 -11 81 14 99 23 17 23 18 5 52 -22 44 -16 53 25 40 17 -5
40 -12 49 -15 16 -5 41 11 47 30 1 5 -6 15 -16 23 -16 13 -12 13 37 8 30 -4
59 -10 64 -15 6 -5 14 -9 20 -9 12 0 -16 27 -62 59 -18 12 -42 41 -53 63 l-21
41 25 -5 c23 -4 24 -3 17 23 -10 34 -5 39 35 39 17 0 34 3 38 6 3 4 -12 33
-34 66 -41 60 -46 97 -11 83 9 -4 34 -9 55 -12 28 -4 37 -2 37 9 0 11 7 14 25
10 18 -3 25 0 23 9 -2 9 8 15 25 17 25 3 27 7 25 40 -4 44 21 55 55 25 19 -16
69 -43 81 -43 9 0 -4 74 -13 83 -19 19 -12 35 12 30 12 -3 27 -10 33 -14 12
-10 55 0 69 15 13 14 17 68 4 61 -11 -8 -11 6 0 24 8 12 12 12 25 2 13 -11 16
-11 16 1 0 7 -6 22 -13 33 -16 23 -20 65 -7 65 5 0 7 6 5 13 -3 7 12 20 37 31
24 10 46 23 50 30 6 8 8 8 8 -1 0 -7 5 -13 11 -13 6 0 9 19 7 48 -3 44 -2 47
21 44 13 -2 33 -12 44 -23 11 -10 24 -16 29 -13 13 8 9 52 -7 85 -9 16 -13 34
-10 40 4 5 -1 21 -9 34 l-16 25 -1391 0 c-1321 0 -1391 -1 -1383 -17 5 -10 9
-52 9 -95 0 -64 3 -80 22 -100 17 -18 23 -41 29 -108 5 -67 14 -99 40 -150 44
-88 64 -139 64 -161 0 -11 6 -19 13 -19 6 -1 24 -11 39 -23 34 -28 40 -89 14
-129 -9 -15 -13 -29 -8 -32 9 -5 26 -62 24 -78 -1 -3 16 -25 38 -47 22 -23 40
-47 40 -54 0 -27 40 -85 101 -147 49 -49 68 -77 78 -112 11 -40 21 -53 63 -79
49 -32 68 -55 68 -84 0 -9 13 -33 30 -53 16 -20 38 -63 50 -96 11 -32 31 -70
45 -83 35 -36 42 -86 21 -148 -17 -47 -50 -95 -67 -95 -20 0 -69 54 -69 76 0
36 -38 41 -117 15 -59 -20 -68 -20 -75 -7 -6 10 -23 16 -44 16 -48 0 -174 30
-174 41 0 5 5 9 10 9 6 0 10 6 10 14 0 24 21 30 110 32 69 0 94 5 130 24 35
19 41 25 26 28 -29 6 -123 80 -129 101 -2 11 -18 21 -37 25 -18 3 -30 9 -27
12 8 9 -89 74 -109 74 -38 0 -5 9 56 15 35 3 68 9 73 12 13 8 -23 41 -53 48
-15 3 -32 16 -38 30 -16 34 -5 39 106 55 4 0 -11 55 -17 60 -34 28 -51 96 -29
118 19 19 -18 53 -51 46 -18 -4 -22 -3 -12 4 23 16 3 30 -54 37 -31 4 -55 12
-55 19 0 25 13 55 21 50 5 -3 9 1 9 10 0 8 6 16 13 19 9 3 8 12 -5 37 -10 17
-18 46 -18 64 0 17 -8 48 -18 68 -18 34 -18 36 0 60 18 25 18 26 -15 58 -19
18 -63 45 -98 59 -42 18 -68 36 -76 52 -7 14 -28 30 -47 37 -33 12 -35 15 -25
35 9 16 9 22 1 25 -8 2 -7 8 3 19 21 20 19 34 -5 40 -11 3 -20 9 -20 13 0 5
-14 13 -32 19 -30 11 -31 12 -15 29 10 9 25 17 34 17 12 0 20 13 26 39 9 36 7
41 -19 65 -21 19 -29 35 -28 56 2 37 -10 52 -53 70 -35 15 -43 32 -18 41 40
16 4 24 -105 24 l-120 0 0 -4000z"/>
<path d="M8966 7981 c-17 -18 -17 -20 4 -41 18 -18 28 -20 62 -15 l40 7 -7
-40 c-8 -52 12 -66 85 -56 34 5 50 3 50 -5 0 -6 8 -11 18 -11 35 0 44 -15 34
-54 l-10 -36 61 -1 c34 -1 76 -4 92 -8 30 -7 30 -7 8 -19 -13 -7 -23 -17 -23
-23 0 -13 37 -2 67 20 25 18 31 36 8 27 -23 -9 -18 12 7 25 17 9 23 9 26 0 10
-29 73 100 87 179 4 19 9 43 11 53 5 16 -14 17 -299 17 -287 0 -305 -1 -321
-19z"/>
<path d="M7579 7763 c-33 -66 -82 -142 -118 -182 -46 -50 -41 -67 8 -32 31 23
59 30 61 16 2 -11 -6 -16 -67 -41 -43 -18 -60 -40 -23 -30 11 3 29 9 40 12 42
12 13 -31 -40 -60 -38 -21 -58 -40 -77 -73 -12 -21 -11 -21 25 -16 49 8 66 17
118 65 45 41 62 34 22 -9 l-21 -23 21 0 c39 0 87 103 75 162 -4 20 -10 27 -20
24 -11 -5 -12 2 -7 32 4 20 13 42 20 47 7 6 14 24 16 40 2 19 9 30 18 30 8 0
18 11 22 24 9 30 2 39 -14 23 -20 -20 -31 -14 -24 13 10 41 -9 28 -35 -22z"/>
<path d="M5163 7766 c2 -20 15 -57 27 -84 13 -26 26 -54 30 -62 4 -8 14 -15
23 -15 22 0 25 -5 56 -88 17 -44 25 -80 20 -89 -9 -16 23 -123 34 -112 4 4 7
0 7 -8 0 -9 7 -21 15 -28 12 -10 15 -10 15 4 0 23 17 20 25 -4 6 -20 25 -28
25 -10 0 9 -59 82 -72 88 -4 2 -4 10 -1 19 5 12 3 14 -7 8 -8 -5 -11 -3 -8 6
3 8 16 13 29 12 13 -1 19 1 12 3 -17 8 -57 74 -49 82 4 3 11 0 16 -8 7 -12 10
-9 10 12 0 15 -14 42 -32 65 -18 22 -42 57 -53 79 -11 21 -32 50 -46 64 -15
14 -34 39 -43 57 -24 47 -37 51 -33 9z"/>
<path d="M8006 7574 c-9 -8 -16 -11 -16 -5 0 6 -4 11 -10 11 -5 0 -7 -6 -5
-12 3 -7 -31 -39 -75 -73 -77 -56 -99 -80 -113 -117 -5 -15 -3 -16 31 -3 20 7
59 23 85 35 72 32 68 18 -6 -24 -96 -53 -156 -116 -112 -116 8 0 15 4 15 8 0
5 19 17 43 28 49 22 197 166 197 193 0 10 6 24 14 30 11 9 11 17 2 36 -13 29
-28 31 -50 9z"/>
<path d="M4708 7566 c-14 -10 -17 -25 -14 -73 3 -34 10 -71 16 -83 15 -28 3
-41 -16 -16 -17 23 -28 16 -19 -13 10 -31 75 -106 75 -86 0 9 -5 25 -11 37
-17 32 1 35 27 4 44 -51 41 -18 -8 89 -10 23 -15 112 -8 134 7 20 -21 24 -42
7z"/>
<path d="M4230 7233 c0 -1 15 -24 34 -50 18 -27 41 -61 51 -78 16 -26 12 -24
-27 14 -36 34 -51 42 -65 35 -10 -4 -25 -8 -33 -8 -11 -1 -14 -11 -12 -44 4
-50 -8 -53 -48 -13 -20 20 -32 25 -39 18 -13 -13 -14 -47 -2 -47 5 0 12 -9 16
-20 3 -10 38 -41 78 -67 40 -26 74 -51 75 -55 9 -20 22 -5 16 17 -8 31 20 35
36 5 12 -22 50 -27 50 -7 0 19 -82 125 -102 132 -10 4 -18 12 -18 20 0 7 -7
21 -16 29 -20 20 -15 20 25 0 18 -9 45 -34 59 -55 29 -41 42 -48 42 -24 0 18
5 18 31 4 19 -9 19 -9 10 10 -15 27 -14 31 7 31 15 1 14 2 -3 12 -22 12 -76
69 -112 116 -12 16 -29 29 -37 29 -9 0 -16 -2 -16 -4z"/>
<path d="M5135 7193 c4 -29 18 -62 35 -83 41 -53 60 -95 60 -134 0 -42 21 -58
56 -42 25 12 33 28 12 25 -30 -4 -34 3 -32 44 1 23 6 51 10 61 5 13 4 17 -4
12 -6 -4 -17 5 -26 22 -8 16 -22 32 -30 35 -9 4 -30 29 -47 57 -17 27 -33 50
-35 50 -3 0 -2 -21 1 -47z"/>
<path d="M3792 7172 c16 -37 38 -61 73 -81 55 -30 114 -76 120 -93 4 -10 16
-18 27 -18 11 0 27 -8 34 -17 19 -25 17 -38 -2 -19 -8 9 -20 16 -25 16 -16 0
-9 -19 13 -34 12 -9 19 -16 15 -16 -13 0 -83 47 -132 90 -41 35 -50 39 -57 26
-8 -14 -13 -12 -41 14 -39 36 -53 39 -31 5 9 -14 21 -25 27 -25 6 0 21 -10 34
-22 13 -12 23 -16 23 -10 0 22 17 12 79 -48 36 -34 72 -60 83 -60 12 0 18 -3
15 -7 -4 -3 3 -17 15 -30 31 -33 17 -37 -26 -8 -20 14 -43 25 -50 25 -7 0 -21
10 -32 21 -26 29 -125 92 -132 84 -10 -9 69 -75 117 -98 41 -19 43 -21 23 -30
-27 -12 -28 -21 -2 -47 23 -23 40 -19 35 8 -1 9 0 13 2 7 2 -5 20 -20 40 -33
28 -18 38 -20 44 -10 5 7 21 11 40 10 l32 -4 -5 45 c-4 31 -15 58 -36 83 -17
20 -28 43 -25 50 3 7 -7 25 -21 39 -14 14 -26 30 -26 35 0 5 -28 26 -61 47
-34 21 -78 54 -98 74 -20 20 -50 41 -68 47 -32 11 -32 11 -21 -16z"/>
<path d="M5332 6923 c4 -13 2 -23 -3 -23 -6 0 -5 -8 1 -19 14 -27 -2 -34 -39
-15 -17 8 -41 14 -53 12 -21 -3 -21 -4 -4 -20 11 -12 15 -25 11 -39 -4 -12 -3
-24 1 -28 5 -3 22 -26 39 -50 16 -24 40 -48 53 -54 25 -11 62 -82 62 -117 0
-12 5 -18 10 -15 6 3 10 -2 10 -11 0 -10 10 -28 21 -40 20 -22 21 -23 2 -18
-44 12 -31 -44 25 -104 14 -16 15 -22 3 -40 -12 -20 -49 30 -62 85 -11 40 -18
47 -45 44 -8 -1 -10 13 -7 39 3 25 1 40 -6 40 -6 0 -11 9 -11 19 0 11 -5 23
-10 26 -6 4 -8 10 -5 15 3 5 1 11 -5 15 -14 9 -12 -11 5 -70 16 -50 13 -95 -5
-95 -6 0 -10 4 -10 8 0 5 -6 16 -13 26 -13 18 -14 18 -21 0 -4 -10 -4 -15 0
-11 6 5 34 -35 34 -49 0 -17 -33 6 -87 62 -61 63 -77 93 -50 95 6 0 1 6 -13
12 -14 7 -36 24 -48 39 -27 31 -39 35 -39 13 0 -8 3 -15 7 -15 4 0 5 -14 2
-30 -5 -34 20 -80 44 -80 19 0 114 -61 114 -74 0 -4 -7 -2 -16 5 -9 7 -24 14
-34 16 -15 2 -14 -5 10 -55 16 -31 27 -58 25 -60 -8 -8 -70 72 -71 91 -1 10
-13 31 -28 45 -26 27 -35 17 -16 -18 9 -16 8 -18 -6 -13 -14 5 -15 1 -9 -28 4
-19 14 -46 23 -61 14 -24 14 -28 -1 -42 -9 -9 -14 -22 -12 -29 2 -7 6 -25 9
-40 5 -22 11 -27 26 -22 12 4 20 2 20 -5 0 -20 31 -23 44 -5 9 13 15 15 20 7
4 -7 3 -12 -3 -12 -15 0 3 -44 29 -70 11 -11 20 -28 20 -38 0 -10 5 -23 12
-30 9 -9 9 -12 -3 -12 -9 0 -26 11 -39 25 -17 18 -26 22 -31 13 -5 -7 -1 -20
7 -29 9 -10 14 -33 13 -60 -1 -25 3 -55 10 -68 17 -32 26 -19 12 19 -9 28 -8
31 5 26 8 -3 24 -2 34 4 14 7 19 5 23 -10 4 -16 63 -50 86 -50 4 0 5 16 3 35
-2 19 0 35 6 35 18 0 35 -31 39 -68 2 -20 13 -52 24 -70 20 -35 26 -82 9 -82
-5 0 -11 5 -11 10 -1 6 -2 16 -3 23 -1 6 -10 12 -21 13 -48 2 -55 5 -55 17 0
11 -49 47 -64 47 -3 0 -6 -8 -6 -18 0 -11 13 -24 32 -33 31 -14 52 -43 28 -37
-7 2 -15 -3 -18 -11 -3 -8 0 -11 7 -7 7 5 9 1 5 -8 -3 -9 -1 -16 5 -16 6 0 11
5 11 10 0 18 15 11 25 -12 11 -23 52 -32 73 -16 8 7 12 7 12 -1 0 -7 5 -9 10
-6 6 4 8 15 5 26 -7 21 5 25 23 7 7 -7 12 -8 12 -2 0 6 -9 19 -20 29 -11 10
-20 25 -20 34 1 13 3 12 13 -4 10 -17 13 -12 18 45 10 96 29 167 40 147 6 -9
5 -26 -1 -42 -6 -16 -7 -41 -1 -65 7 -31 6 -40 -4 -40 -8 0 -16 8 -18 18 -3 9
-5 1 -6 -18 0 -19 6 -46 14 -60 8 -14 20 -36 26 -50 l13 -25 3 23 c5 26 18 29
27 6 9 -23 19 -11 23 28 2 22 -3 39 -19 56 -13 14 -18 22 -11 18 9 -5 10 4 7
31 -4 29 -3 34 5 23 6 -8 11 -28 11 -45 l0 -30 20 25 c15 19 16 26 6 28 -16 4
-32 41 -41 97 -9 57 11 34 27 -32 12 -44 16 -50 31 -42 14 8 16 6 10 -8 -4
-14 0 -12 17 6 19 20 25 21 29 9 8 -20 70 -72 77 -65 7 7 -37 67 -46 62 -3 -2
-14 10 -24 26 -14 24 -15 33 -6 44 9 11 9 15 1 15 -6 0 -11 7 -11 15 0 9 -6
12 -16 8 -14 -5 -15 -3 -5 15 8 15 7 29 -4 55 -8 19 -11 38 -7 43 4 5 -3 0
-14 -13 -25 -25 -34 -21 -34 15 0 14 -3 22 -7 18 -4 -4 -6 -26 -5 -49 1 -23
-1 -37 -4 -31 -3 7 -14 10 -24 7 -20 -5 -29 12 -10 19 6 2 4 24 -5 58 -8 30
-15 65 -15 77 0 23 -21 26 -43 4 -9 -9 -9 -14 1 -20 11 -6 10 -16 -5 -49 -10
-23 -21 -42 -26 -42 -10 0 0 86 13 110 14 26 12 60 -3 60 -7 0 -21 16 -30 35
-20 43 -8 45 26 5 29 -34 37 -37 37 -14 0 8 5 12 10 9 7 -4 9 3 4 22 -12 54
-15 63 -26 63 -5 0 -7 -7 -4 -15 3 -8 9 -22 12 -30 3 -8 1 -15 -5 -15 -15 0
-33 47 -33 82 1 19 -14 45 -44 80 -30 35 -40 54 -32 59 7 5 23 -5 39 -24 47
-54 44 -22 -9 82 -31 63 -45 102 -38 105 6 2 -3 16 -21 31 -18 14 -33 32 -33
40 0 7 -7 18 -15 25 -9 7 -13 21 -10 30 3 10 -2 23 -12 31 -15 13 -16 12 -11
-8z"/>
<path d="M3229 6876 c6 -7 31 -26 56 -42 52 -32 61 -60 18 -50 -22 5 -24 4
-11 -4 10 -6 34 -11 55 -12 21 -1 49 -9 62 -19 12 -10 39 -21 59 -25 19 -4 47
-13 61 -20 24 -13 22 -14 -37 -14 -44 0 -61 -3 -56 -11 9 -16 -56 0 -74 17 -7
8 -23 14 -35 14 -22 -1 -22 -1 -3 -15 11 -8 23 -15 28 -15 4 0 5 -6 2 -13 -3
-8 21 -24 63 -44 210 -98 269 -118 330 -109 34 4 45 2 50 -10 4 -12 14 -14 36
-10 28 6 96 -10 107 -26 3 -3 19 -9 35 -13 l30 -6 -32 29 c-37 32 -41 42 -17
42 8 0 12 5 9 10 -3 6 -17 10 -30 10 -13 0 -39 6 -57 14 -18 8 -42 17 -53 21
-27 9 -2 23 31 17 13 -2 24 -2 24 1 0 10 -44 53 -72 72 -16 9 -28 23 -28 30 0
7 -6 16 -12 18 -10 4 -10 6 -1 6 7 1 27 -12 46 -28 20 -18 74 -44 133 -64 118
-41 195 -77 188 -89 -3 -4 -1 -8 5 -8 23 0 17 18 -20 55 -21 21 -39 35 -39 31
0 -16 -42 17 -50 40 -5 13 -14 24 -20 24 -6 0 -8 -4 -5 -10 10 -16 -8 -11 -35
10 -19 15 -22 22 -12 28 10 7 7 13 -13 26 -15 10 -29 15 -32 12 -3 -3 -14 -1
-25 5 -29 16 -33 4 -6 -21 l23 -22 -23 11 c-12 7 -28 9 -34 5 -7 -4 -8 -3 -4
4 4 7 2 12 -3 12 -6 0 -11 12 -11 28 0 30 -30 62 -59 62 -10 0 -36 7 -57 16
l-39 16 23 -24 c12 -13 22 -29 22 -35 0 -6 5 -13 11 -15 9 -3 3 -28 -16 -65
-1 -2 -20 6 -42 17 -22 10 -52 21 -66 24 -15 2 -41 16 -60 30 -33 25 -97 56
-117 56 -23 0 -5 -18 65 -64 41 -28 75 -53 75 -58 0 -4 5 -8 11 -8 6 0 17 -6
25 -14 15 -16 19 -36 7 -36 -12 0 -39 20 -29 20 6 0 -5 11 -24 25 -19 14 -42
25 -51 25 -26 0 -50 11 -44 20 8 12 -80 60 -109 60 -14 0 -48 16 -75 35 -50
36 -72 45 -52 21z"/>
<path d="M6697 6800 c-10 -12 -17 -26 -16 -33 4 -34 -2 -45 -21 -40 -13 4 -20
14 -20 30 l0 25 -19 -23 c-20 -24 -20 -24 -35 -4 -15 19 -15 19 -16 -7 0 -37
-18 -35 -32 2 -26 77 -42 -16 -22 -137 6 -40 5 -42 -16 -38 -13 2 -30 11 -39
19 -14 12 -18 12 -30 -1 -10 -11 -12 -38 -9 -109 4 -75 2 -94 -9 -94 -10 0
-12 -9 -7 -35 7 -40 -11 -50 -25 -13 -7 19 -9 15 -16 -23 -10 -54 -7 -72 11
-82 8 -4 14 -15 14 -23 0 -8 -3 -13 -8 -11 -8 6 2 -117 13 -150 8 -26 18 -29
34 -9 7 9 8 17 3 20 -6 3 -12 23 -15 43 -3 21 -8 49 -13 63 -6 22 -2 20 31
-15 22 -22 39 -52 41 -66 1 -15 5 -37 9 -50 7 -23 6 -23 -7 -5 -14 18 -15 18
-20 -7 -3 -17 5 -46 23 -83 16 -31 29 -67 29 -80 0 -12 4 -25 9 -28 4 -3 11
-28 15 -56 5 -36 11 -50 22 -50 12 0 15 7 10 28 l-6 27 25 -30 c19 -23 25 -26
25 -12 0 10 8 17 20 17 10 0 24 -8 30 -17 9 -15 10 -13 9 12 -3 48 0 67 11 60
6 -3 10 -20 10 -38 0 -38 21 -23 23 17 2 23 3 24 14 10 13 -18 8 -59 -10 -81
-6 -9 -6 -17 2 -26 6 -8 7 -18 3 -22 -4 -5 -2 -6 3 -3 99 49 147 58 95 18
l-25 -20 25 -1 c17 -1 20 -3 8 -6 -37 -10 -12 -58 33 -65 13 -2 23 -9 22 -16
-3 -14 13 -16 22 -2 3 6 11 10 16 10 6 0 7 -4 4 -10 -3 -6 4 -10 17 -10 16 0
19 -3 10 -9 -11 -7 -11 -9 2 -14 9 -4 16 -14 16 -24 0 -13 3 -14 12 -5 20 20
40 15 33 -9 -5 -15 -4 -19 5 -14 7 4 10 20 8 36 -3 20 0 29 11 32 9 3 6 5 -8
6 -17 1 -22 -3 -17 -14 7 -20 -18 -20 -34 0 -7 9 -11 17 -9 18 40 26 59 29
115 14 40 -11 50 -16 31 -16 -16 -1 -26 -5 -23 -10 3 -5 -2 -11 -12 -13 -19
-6 -69 -88 -53 -88 6 0 15 9 21 20 6 11 7 20 3 20 -13 0 31 27 55 33 24 6 29
-2 10 -21 -9 -9 -4 -9 23 -2 18 6 43 10 54 10 17 0 18 -2 5 -11 -11 -8 -7 -9
19 -5 29 5 32 4 21 -9 -7 -8 -22 -15 -34 -16 -15 0 -16 -2 -6 -6 8 -4 22 -14
30 -23 8 -9 22 -14 32 -12 31 6 29 -18 -4 -31 -32 -14 -31 -14 38 -13 57 1 74
-3 90 -18 16 -17 17 -19 2 -13 -15 5 -74 -17 -88 -34 -3 -3 -18 -13 -35 -22
-33 -18 -21 -22 19 -7 14 5 27 6 27 2 8 -44 5 -54 -20 -64 -22 -10 -23 -12 -7
-16 10 -2 30 5 45 15 14 10 42 20 61 21 26 2 31 0 20 -8 -8 -5 -23 -10 -33
-10 -11 0 -31 -10 -45 -21 -25 -20 -25 -21 -4 -15 33 11 27 -6 -11 -28 -36
-21 -22 -33 22 -18 16 6 34 6 42 1 8 -5 31 -9 52 -9 26 0 37 -4 37 -15 0 -8
-4 -15 -8 -15 -7 0 -52 -71 -52 -82 0 -11 81 -31 89 -22 4 5 14 28 21 52 7 23
17 42 23 42 5 0 7 -7 3 -15 -3 -10 3 -17 19 -21 19 -5 30 2 57 32 18 21 68 75
110 119 43 44 78 84 78 89 0 5 16 26 35 47 46 51 46 70 0 62 -26 -4 -41 -1
-55 12 -11 10 -20 13 -20 7 0 -6 6 -12 13 -15 24 -8 2 -14 -40 -9 -45 4 -60
22 -19 22 13 0 26 6 29 13 3 9 11 9 37 0 26 -10 35 -10 46 2 8 7 24 17 36 21
21 6 21 7 3 20 -17 13 -15 14 26 14 44 0 44 0 123 99 73 93 246 275 253 267 2
-2 -14 -21 -34 -42 -72 -74 -192 -209 -222 -249 -19 -27 -29 -50 -27 -68 3
-26 -3 -31 -31 -28 -7 1 -19 -11 -27 -27 -14 -26 -13 -28 4 -28 11 1 19 -3 19
-9 0 -5 -12 -9 -27 -8 -22 2 -33 -7 -61 -48 -18 -27 -85 -104 -147 -172 -63
-67 -114 -125 -114 -128 0 -3 12 -10 28 -15 l27 -10 -27 -6 c-15 -3 -25 -2
-23 3 3 4 2 10 -3 13 -12 7 -65 -52 -57 -64 9 -15 25 -12 80 15 55 27 87 33
67 13 -17 -17 -15 -38 4 -38 9 0 60 33 114 73 54 39 172 122 261 182 89 61
171 118 181 129 11 10 39 26 62 37 27 12 72 51 127 110 46 51 104 110 129 133
24 23 63 59 85 82 22 23 51 47 65 54 38 20 120 93 120 108 0 6 -5 12 -11 12
-6 0 -16 6 -24 13 -11 12 -6 18 33 36 30 15 48 19 50 12 5 -16 22 -13 22 4 0
8 -6 15 -14 15 -7 0 -19 7 -26 15 -10 13 -9 15 9 15 26 0 61 17 61 30 0 10
-62 3 -102 -12 -15 -5 -25 -15 -22 -22 3 -7 -7 -24 -21 -37 -15 -13 -35 -33
-46 -43 -32 -33 -21 -4 16 43 19 24 35 47 35 51 0 12 -53 33 -90 36 -19 2 -60
5 -91 7 -30 2 -61 7 -67 11 -17 10 -15 43 3 50 21 8 19 23 -4 29 -12 3 -20 17
-25 46 -3 22 -8 41 -10 41 -2 0 -25 -9 -51 -21 -34 -15 -50 -18 -55 -10 -4 7
-15 9 -26 5 -18 -7 -19 -7 -1 14 10 11 17 29 15 39 -3 16 -8 14 -33 -12 -17
-17 -50 -44 -74 -60 -25 -17 -78 -63 -120 -103 -41 -41 -91 -82 -110 -92 -20
-10 -57 -36 -83 -59 -25 -23 -49 -41 -52 -41 -14 0 35 64 62 80 16 10 32 27
34 38 6 20 4 20 -34 -4 -22 -14 -42 -24 -44 -21 -2 2 5 24 16 49 10 24 26 69
34 99 8 30 17 63 21 74 6 18 5 18 -7 4 -14 -18 -71 -49 -88 -49 -18 0 -3 113
17 128 16 11 16 14 3 22 -13 8 -13 13 3 39 9 16 17 32 17 35 0 15 -31 4 -54
-19 -30 -30 -34 -31 -32 -7 0 9 -5 16 -12 14 -7 -1 -25 4 -40 12 -15 7 -39 19
-55 27 -17 8 -25 18 -22 28 3 11 -8 22 -38 35 -69 30 -72 32 -75 55 -2 13 -11
21 -23 21 -24 0 -25 17 -1 23 16 4 16 5 -1 6 -10 0 -16 5 -13 9 7 12 -11 14
-179 18 -244 7 -273 6 -294 -6 -18 -9 -21 -8 -21 9 0 17 -5 19 -37 14 -33 -6
-36 -4 -31 15 8 29 0 28 -34 -5 -29 -28 -38 -26 -51 12 -2 6 -19 5 -44 -3 -22
-7 -56 -12 -76 -12 -20 0 -39 -4 -42 -10 -26 -42 -35 57 -11 115 8 19 11 35 5
35 -5 0 -9 -5 -9 -11 0 -5 -4 -8 -10 -4 -5 3 -17 -6 -26 -20 -25 -38 -34 -30
-29 25 3 28 4 50 2 50 -1 0 -10 -9 -20 -20z m750 -415 c33 -17 73 -51 73 -60
0 -3 -5 -3 -10 0 -6 4 -23 8 -38 11 -15 2 -46 9 -70 15 -59 16 -65 3 -9 -21
55 -24 107 -66 107 -86 0 -8 8 -14 18 -14 11 0 27 -9 37 -20 16 -18 16 -20 0
-36 -15 -16 -18 -15 -45 4 -16 12 -54 33 -86 47 -31 14 -74 40 -95 58 -21 17
-51 42 -66 55 -19 16 -24 25 -15 29 7 2 18 10 25 17 7 7 19 16 27 19 24 10
118 -1 147 -18z m793 -396 c-9 -31 -9 -44 -1 -47 6 -2 11 -11 11 -19 0 -22
-49 -84 -63 -81 -14 3 -97 -51 -97 -62 0 -7 -53 7 -69 17 -3 2 11 19 29 38 35
36 34 59 -1 36 -12 -7 -23 -10 -26 -7 -12 11 10 43 50 70 23 17 46 36 50 43
12 19 37 16 37 -5 0 -10 -7 -27 -15 -40 -14 -19 -14 -21 -1 -16 9 3 28 30 43
60 17 33 32 53 40 50 7 -3 13 0 13 6 0 6 3 9 6 6 3 -3 0 -25 -6 -49z m-405 21
c3 -5 1 -10 -6 -10 -8 0 -9 -4 -1 -13 6 -7 10 -36 9 -64 -2 -45 -5 -52 -30
-63 -16 -7 -33 -23 -39 -36 -6 -13 -19 -26 -29 -29 -11 -4 -26 -13 -34 -22
-21 -20 -83 -34 -88 -20 -2 6 29 39 68 73 39 35 77 74 85 89 7 14 24 28 37 31
23 6 33 24 13 24 -5 0 -10 11 -10 25 0 25 14 33 25 15z"/>
<path d="M5567 6630 c-6 -48 11 -139 33 -180 11 -21 2 -112 -11 -104 -23 14 3
-70 28 -91 6 -5 13 -19 15 -29 1 -11 11 -20 21 -22 16 -2 18 3 12 44 -3 26 -9
49 -13 52 -14 10 -10 60 4 60 16 0 19 16 4 25 -5 3 -10 0 -11 -7 -1 -7 -5 3
-9 22 -9 37 -5 54 6 25 4 -9 19 -30 34 -47 27 -29 28 -29 35 -9 3 12 11 21 16
21 10 0 12 47 3 103 -7 41 -21 49 -27 15 -3 -21 -5 -19 -19 12 -18 39 -16 49
7 30 8 -7 15 -10 15 -6 0 13 -51 86 -60 86 -6 0 -9 6 -7 13 1 6 -6 11 -15 11
-10 -1 -18 3 -18 9 0 6 -3 7 -7 4 -3 -4 -12 -2 -18 3 -9 8 -14 -2 -18 -40z"/>
<path d="M3350 6469 c0 -15 69 -41 96 -36 13 2 21 0 18 -7 -7 -19 117 -83 193
-100 103 -23 159 -21 166 4 5 20 28 26 86 22 22 -1 22 0 7 17 -9 10 -16 22
-16 28 0 16 -29 24 -48 14 -9 -5 -31 -4 -56 4 -23 8 -62 15 -88 18 -38 4 -47
1 -51 -14 -4 -14 -12 -17 -48 -13 -116 13 -128 15 -123 28 3 8 -13 19 -47 29
-59 19 -89 22 -89 6z"/>
<path d="M8237 6351 c-15 -10 -34 -27 -41 -37 -18 -27 -28 -72 -16 -76 5 -2
-8 -29 -30 -62 -22 -32 -40 -62 -40 -67 0 -4 18 0 40 10 42 19 73 52 90 96 11
30 3 56 -11 34 -6 -9 -9 -10 -9 -2 0 26 13 43 34 43 18 0 21 6 22 40 2 46 -1
47 -39 21z"/>
<path d="M4310 6350 c0 -5 4 -10 9 -10 12 0 51 -62 45 -71 -2 -4 -21 -1 -41 7
-29 13 -37 13 -44 2 -5 -8 -2 -15 9 -19 10 -4 23 -14 30 -22 11 -13 10 -16 -7
-22 -23 -7 -39 -68 -24 -88 6 -6 13 -24 17 -39 5 -21 3 -26 -8 -22 -9 4 -16
-6 -20 -31 -4 -19 -4 -40 -1 -45 7 -11 -63 -43 -76 -34 -5 3 -9 0 -9 -6 0 -8
-11 -9 -32 -5 -27 6 -30 5 -24 -11 4 -11 8 -21 8 -24 2 -21 -5 -30 -22 -30
-11 0 -20 -4 -20 -9 0 -5 9 -13 20 -16 11 -3 20 -11 20 -16 0 -5 -9 -9 -20 -9
-11 0 -20 -7 -20 -15 0 -8 -9 -15 -20 -15 -11 0 -20 -4 -20 -10 0 -5 -7 -10
-15 -10 -9 0 -26 -9 -37 -20 -12 -11 -26 -19 -32 -17 -5 2 -20 -7 -33 -19 -14
-13 -30 -21 -37 -18 -13 5 -68 -50 -60 -59 3 -3 -3 -8 -14 -11 -11 -4 -35 -20
-54 -37 -18 -16 -52 -44 -75 -62 -24 -17 -46 -42 -49 -54 -3 -13 -21 -36 -40
-53 -37 -32 -41 -40 -20 -40 9 0 12 -7 9 -20 -3 -11 -9 -20 -14 -20 -5 0 -9
-5 -9 -12 0 -7 -12 -22 -26 -33 -15 -12 -28 -32 -29 -46 -1 -13 -3 -27 -4 -30
-2 -11 -87 -43 -106 -40 -16 2 -18 0 -7 -10 18 -19 15 -29 -8 -29 -27 0 -26
-27 1 -35 15 -5 18 -10 10 -15 -7 -4 7 -14 36 -25 155 -57 493 -251 629 -361
34 -27 126 -96 204 -154 79 -58 184 -135 234 -172 50 -38 96 -68 102 -68 6 0
17 7 24 15 11 13 9 19 -10 32 l-23 16 24 9 c19 7 21 11 9 18 -11 7 -8 10 15
11 28 1 28 1 6 8 l-24 6 26 12 c19 9 25 17 20 29 -5 13 -15 15 -52 11 -30 -4
-39 -3 -26 3 11 5 30 9 43 9 13 1 22 7 22 16 0 8 9 15 20 15 10 0 24 8 29 18
8 16 4 22 -25 35 -19 10 -47 17 -61 17 -33 0 -27 5 15 13 21 4 31 3 27 -3 -3
-6 5 -10 20 -10 24 0 25 1 11 16 -20 20 -20 25 1 17 11 -4 14 -3 9 6 -6 9 -2
12 10 11 40 -5 47 -1 34 15 -7 9 -20 13 -29 10 -9 -2 -23 0 -31 5 -12 8 -10
10 8 10 32 0 64 19 56 32 -5 7 -2 9 8 5 12 -4 15 1 14 26 -1 23 5 34 21 42 17
9 20 14 11 23 -9 9 -9 12 3 12 12 0 12 2 0 9 -8 5 -27 5 -45 0 -43 -12 -44
-11 -16 12 14 11 19 18 13 14 -7 -3 -13 -1 -13 4 0 6 5 11 10 11 6 0 10 7 10
15 0 8 4 15 10 15 5 0 9 -5 7 -11 -1 -6 4 -14 11 -16 6 -3 12 3 12 11 0 10
-12 19 -30 23 -34 6 -50 23 -23 23 10 0 14 3 8 8 -6 4 -11 18 -11 32 -1 23 3
25 42 28 34 2 46 -2 58 -20 9 -12 23 -23 31 -24 10 -1 2 12 -19 32 -39 38 -46
64 -18 64 15 0 17 6 14 36 -4 36 -4 37 24 30 24 -5 23 -3 -10 14 -22 11 -42
23 -45 26 -6 7 2 5 43 -12 14 -5 17 -4 12 4 -5 8 4 12 31 12 l38 0 -25 20
c-14 11 -19 20 -12 20 13 0 11 13 -5 58 -3 6 -1 12 5 12 5 0 12 -9 15 -21 4
-14 10 -18 18 -13 10 6 10 9 1 12 -23 7 -12 24 13 20 14 -3 25 -1 25 3 0 5 5
9 11 9 6 0 9 -7 6 -15 -4 -8 -2 -17 3 -20 14 -8 12 28 -2 62 -6 15 -10 34 -9
42 1 7 -2 10 -8 7 -5 -4 -13 3 -16 15 -9 26 3 91 15 84 5 -3 7 -11 4 -18 -3
-8 -1 -24 5 -38 8 -21 10 -22 16 -6 6 15 10 15 24 5 14 -12 14 -11 3 4 -14 18
-4 52 14 48 5 -2 14 7 20 18 10 21 11 21 21 -6 l10 -27 12 29 c8 20 9 32 1 40
-5 5 -10 17 -10 26 1 12 4 11 15 -4 15 -20 15 -20 17 0 0 10 4 -3 8 -31 5 -43
7 -47 16 -28 5 12 7 46 5 75 -3 29 -7 43 -9 31 -2 -13 -9 -23 -16 -23 -10 0
-11 12 -5 48 4 26 8 56 8 67 1 17 -1 17 -9 5 -8 -13 -10 -13 -10 1 0 9 -7 22
-15 29 -13 11 -14 8 -8 -20 9 -48 -16 -35 -44 21 -16 32 -18 45 -9 47 16 4 8
52 -8 52 -20 0 -52 43 -48 64 2 10 -1 23 -7 29 -8 8 -11 6 -12 -8 -1 -11 -1
-23 0 -27 0 -5 -4 -8 -9 -8 -6 0 -10 6 -11 13 0 6 -2 24 -3 39 -2 29 -26 54
-62 64 -11 3 -25 15 -30 27 -6 12 -9 16 -7 9 2 -9 -6 -10 -25 -6 -25 6 -45 23
-56 48 -3 7 -9 4 -16 -7 -10 -15 -16 -12 -61 34 -37 38 -53 48 -62 40 -10 -7
-19 -7 -33 3 -25 17 -64 26 -64 15 0 -23 -20 -5 -40 36 -12 24 -25 43 -29 42
-3 -1 -40 31 -80 71 -70 69 -91 83 -91 62z"/>
<path d="M5760 6311 c0 -11 5 -21 10 -21 6 0 10 -5 10 -10 0 -6 -8 -10 -17 -8
-14 2 -17 -3 -15 -26 2 -16 11 -40 20 -54 16 -25 16 -26 -1 -19 -14 5 -17 1
-17 -29 0 -21 4 -33 10 -29 6 3 10 2 10 -3 0 -9 59 -38 70 -35 3 0 10 -5 17
-12 9 -10 8 -14 -8 -18 -10 -3 -22 0 -27 7 -4 6 -19 17 -34 23 -25 11 -28 11
-28 -7 0 -13 7 -20 19 -20 14 0 18 -5 14 -19 -3 -12 7 -37 26 -64 27 -37 30
-48 22 -69 -5 -14 -7 -29 -3 -34 4 -4 -1 -4 -10 -1 -24 9 -23 3 8 -30 l27 -28
-7 48 -7 48 29 -15 30 -15 -11 34 c-11 37 -2 60 13 35 8 -13 10 -13 10 1 0 8
-5 20 -12 27 -9 9 -9 12 -1 12 7 0 15 -4 18 -10 3 -5 13 -10 22 -10 14 0 14 3
-2 20 -20 22 -30 54 -14 44 5 -3 9 1 9 9 0 22 -45 58 -63 51 -10 -3 -17 -1
-17 5 0 6 -5 10 -11 9 -6 -2 -13 8 -15 21 -3 14 -12 33 -21 43 -16 18 -16 18
0 12 20 -7 20 -5 7 33 -9 26 -9 27 5 9 8 -11 15 -26 15 -34 0 -11 3 -12 14 -3
11 9 18 6 35 -18 12 -16 21 -34 21 -39 0 -5 11 -9 23 -8 18 1 23 6 19 20 -3
13 -1 17 6 12 7 -4 12 -3 12 3 0 5 -7 14 -16 19 -9 5 -15 12 -15 15 3 19 0 28
-6 24 -5 -3 -9 10 -9 28 -1 18 -10 42 -21 54 l-19 21 -22 -25 c-13 -15 -19
-31 -15 -41 4 -12 3 -15 -5 -10 -7 4 -12 13 -12 20 0 7 -7 21 -15 32 -13 18
-14 18 -9 -6 5 -22 4 -23 -6 -7 -6 10 -9 26 -5 35 3 9 3 13 -1 9 -4 -4 -13 -2
-21 4 -10 9 -13 7 -13 -10z"/>
<path d="M9180 5998 c-19 -5 -52 -12 -74 -15 -21 -3 -46 -12 -55 -20 -9 -8
-47 -35 -86 -60 -139 -92 -258 -190 -249 -205 7 -12 -36 -47 -59 -48 -20 0
-175 -145 -166 -155 4 -3 20 6 37 20 16 14 36 25 43 26 8 0 46 17 86 37 150
77 241 122 248 122 21 0 -37 -37 -101 -65 -41 -18 -83 -44 -95 -59 -23 -30
-107 -76 -138 -76 -11 0 -21 -3 -23 -7 -1 -5 -30 -21 -63 -37 -44 -22 -90 -59
-175 -145 -63 -64 -151 -148 -195 -186 -100 -89 -285 -262 -307 -290 -9 -12
-20 -34 -23 -48 -6 -21 -4 -27 10 -27 9 0 14 4 11 8 -3 5 33 14 79 19 71 9 90
15 124 43 23 17 41 38 41 46 0 8 6 14 13 14 7 0 53 38 103 84 128 121 203 178
429 330 213 143 374 238 606 359 235 122 280 148 276 160 -3 7 -11 10 -18 8
-38 -10 -95 -19 -99 -14 -8 8 30 31 79 49 51 18 98 61 83 76 -5 5 -20 5 -36
-2 -43 -16 -51 -12 -27 14 26 27 18 36 -31 38 -47 2 -93 -24 -169 -94 -22 -21
-40 -23 -36 -5 2 13 -2 13 -85 -6 -36 -8 -68 -22 -86 -40 -36 -35 -65 -37 -32
-2 l23 25 -32 0 c-48 0 -33 24 17 28 23 2 42 7 42 12 0 5 26 13 58 20 98 18
132 30 132 45 0 8 5 15 11 15 5 0 7 5 4 10 -8 12 -48 11 -95 -2z"/>
<path d="M9416 5724 c-32 -19 -62 -34 -66 -34 -10 0 -414 -214 -460 -244 -19
-13 -60 -38 -90 -57 -30 -18 -57 -36 -60 -40 -3 -3 -20 -14 -38 -23 -27 -14
-148 -94 -236 -156 -93 -66 -471 -399 -462 -407 2 -3 17 4 33 14 26 16 27 16
14 0 -8 -10 -11 -20 -8 -23 5 -5 235 108 697 342 91 46 168 84 173 84 4 0 26
9 50 19 23 11 121 52 217 91 373 153 632 270 613 277 -19 7 -16 17 14 47 33
33 24 43 -26 28 -46 -14 -101 -16 -101 -3 0 12 83 58 131 73 43 12 51 27 17
29 -13 1 -41 3 -63 5 -22 1 -79 -3 -127 -9 -78 -10 -89 -9 -106 6 -26 24 -48
20 -116 -19z"/>
<path d="M9880 5546 c-41 -18 -95 -42 -120 -53 -25 -11 -76 -33 -115 -49 -38
-15 -87 -38 -107 -51 -21 -13 -46 -23 -56 -23 -10 0 -22 -4 -28 -8 -5 -5 -47
-23 -94 -41 -47 -18 -114 -46 -150 -61 -36 -16 -137 -59 -225 -95 -145 -61
-758 -366 -750 -373 3 -3 180 70 214 88 37 20 407 172 531 218 236 88 311 107
510 133 90 11 448 14 481 4 11 -4 19 -2 19 4 0 6 -12 11 -27 11 -37 0 -73 10
-73 20 0 9 25 20 60 26 14 3 31 7 38 9 15 6 16 55 0 55 -9 0 -9 3 0 12 8 8 12
47 12 110 0 95 -1 98 -22 97 -13 0 -57 -15 -98 -33z"/>
<path d="M8173 5262 c-45 -31 -108 -75 -140 -97 -200 -138 -273 -194 -273
-210 0 -10 72 -5 104 9 36 15 249 202 254 223 2 7 8 13 13 13 6 0 7 5 4 10 -3
6 0 10 8 10 12 0 129 99 117 99 -3 0 -42 -25 -87 -57z"/>
<path d="M9635 5219 c-285 -14 -452 -57 -840 -217 -66 -27 -149 -63 -185 -80
-76 -35 -225 -101 -290 -128 -25 -10 -47 -21 -50 -25 -3 -3 -18 -9 -35 -13
-37 -9 -137 -109 -114 -114 28 -5 226 57 483 153 249 92 418 145 652 204 177
45 254 57 642 103 l102 12 0 48 c0 43 -2 48 -22 49 -13 1 -66 4 -118 8 -52 3
-153 3 -225 0z"/>
<path d="M9723 5060 c-123 -16 -260 -36 -305 -45 -221 -44 -588 -157 -873
-271 -93 -37 -210 -80 -260 -95 -49 -15 -82 -28 -72 -28 10 -1 15 -6 12 -12
-4 -6 -19 -7 -36 -4 -18 4 -41 1 -60 -9 -18 -9 -44 -16 -58 -16 -19 0 -22 -3
-14 -11 7 -7 42 -12 82 -12 62 1 69 -2 68 -18 -1 -11 -9 -19 -20 -19 -10 0
-15 -4 -12 -10 9 -14 45 -12 50 3 3 6 24 13 48 14 23 2 74 12 112 24 210 61
337 89 674 144 134 22 268 50 335 71 219 69 502 165 554 190 l52 25 0 54 c0
66 29 64 -277 25z"/>
<path d="M3385 5061 c-3 -6 3 -14 12 -20 10 -6 13 -11 8 -11 -6 0 -16 5 -22
11 -7 7 -19 9 -29 5 -16 -6 -16 -8 2 -21 17 -13 16 -14 -17 -8 -20 3 -46 0
-58 -7 -12 -6 -40 -12 -62 -12 -27 0 -39 -5 -39 -15 0 -8 4 -12 8 -9 5 3 21
-3 36 -13 30 -20 27 -25 -21 -36 -18 -3 -33 -12 -33 -18 -1 -16 -64 -47 -98
-48 -15 0 -21 -3 -14 -6 6 -2 12 -11 12 -19 0 -8 9 -14 20 -14 22 0 25 -7 11
-28 -11 -18 -299 -23 -315 -6 -13 13 -249 -63 -240 -77 10 -17 87 -9 150 17
35 14 68 22 74 19 6 -4 23 -8 38 -11 49 -8 53 -12 47 -44 -4 -22 -2 -30 10
-30 8 0 15 -3 15 -8 0 -4 -51 -4 -112 0 -71 5 -124 4 -142 -2 -17 -6 -34 -6
-40 -1 -6 5 -27 11 -46 14 -19 3 -47 9 -61 12 -52 13 -179 -41 -179 -77 0 -4
18 -8 41 -8 48 0 44 -15 -6 -24 -19 -4 -35 -12 -35 -17 0 -6 -7 -3 -16 5 -20
21 -60 21 -68 0 -5 -13 -1 -14 24 -9 26 6 30 4 30 -14 0 -23 -35 -32 -110 -29
-30 1 -63 -7 -100 -24 -30 -14 -65 -29 -78 -33 -26 -8 -47 -41 -32 -50 6 -4
30 2 53 13 23 11 52 22 65 25 19 5 21 3 11 -9 -6 -8 -9 -17 -6 -21 4 -3 -1
-12 -11 -19 -15 -11 -14 -14 13 -24 17 -7 51 -9 78 -6 26 3 47 2 47 -2 0 -13
-23 -32 -37 -32 -7 0 -31 -12 -53 -26 -22 -15 -44 -24 -47 -20 -4 4 -1 11 7
16 23 15 4 12 -37 -5 -19 -8 -43 -15 -53 -15 -9 0 -24 -8 -33 -18 -16 -17 -16
-19 7 -32 14 -7 31 -10 39 -7 8 3 19 1 25 -5 6 -6 -2 -21 -27 -44 -32 -30 -34
-33 -15 -34 12 0 27 -7 35 -16 11 -13 11 -15 -2 -13 -21 5 -75 -49 -62 -62 6
-6 19 -6 37 1 60 22 60 10 1 -53 -32 -35 -45 -57 -45 -78 0 -16 -4 -29 -10
-29 -5 0 -10 -7 -10 -15 0 -8 3 -14 8 -14 21 4 24 -2 7 -15 -15 -11 -17 -17
-7 -28 9 -11 9 -17 0 -26 -9 -9 -8 -12 6 -12 9 0 14 -4 11 -10 -3 -5 -1 -10 5
-10 6 0 4 -10 -6 -25 -9 -14 -20 -22 -25 -19 -5 3 -9 -2 -9 -10 0 -16 44 -27
90 -23 24 1 111 -2 589 -24 236 -11 896 2 1081 21 73 8 641 39 719 40 11 0 11
3 0 17 -13 15 -11 16 14 11 15 -3 30 -1 33 3 3 5 -5 9 -18 9 -18 0 -20 2 -8
10 8 5 11 10 7 10 -4 0 -19 -7 -32 -16 -28 -18 -33 -11 -9 13 12 12 12 18 3
23 -8 5 -5 10 10 15 25 8 28 25 4 25 -14 0 -14 2 2 20 10 11 25 20 33 20 12 0
11 3 -4 14 -18 14 -18 15 11 41 29 26 29 27 5 20 -14 -4 -37 -14 -52 -21 -15
-8 -35 -14 -45 -14 -10 0 19 21 65 46 45 25 82 49 82 54 0 4 -11 11 -25 14
-37 9 -30 23 15 30 30 5 44 13 52 32 12 25 15 26 75 9 10 -3 -9 8 -42 24 -55
27 -57 30 -29 30 37 1 48 10 33 27 -9 11 -6 16 12 23 22 9 22 10 4 12 -11 0
-29 1 -40 0 -15 -1 -12 2 8 11 16 7 28 17 27 21 -1 9 25 37 32 34 18 -9 -77
66 -227 180 -99 75 -223 171 -275 212 -111 89 -158 122 -260 183 -216 131
-448 235 -465 209z"/>
<path d="M9975 4925 c-5 -2 -50 -16 -100 -30 -49 -15 -101 -36 -114 -46 -13
-11 -38 -19 -55 -19 -33 0 -184 -48 -155 -49 8 -1 64 5 125 13 60 8 158 18
217 22 92 6 107 9 105 23 -2 11 -15 17 -38 18 -19 0 -45 1 -57 2 -35 2 -18 26
20 28 53 4 77 13 77 28 0 15 -5 17 -25 10z"/>
<path d="M6434 4826 c-28 -8 -40 -16 -37 -26 3 -12 1 -11 -9 2 -10 11 -19 14
-29 7 -11 -7 -11 -9 4 -9 11 0 17 -6 14 -12 -2 -7 -12 -13 -22 -13 -22 0 -31
-20 -14 -31 7 -4 17 0 24 9 7 10 25 19 41 21 16 2 23 1 17 -1 -40 -14 19 -87
69 -85 34 1 36 -10 6 -30 -22 -15 -22 -16 -5 -41 14 -22 15 -27 3 -27 -8 0
-17 -6 -20 -12 -3 -7 -4 -1 -1 13 5 28 -27 80 -41 67 -4 -4 -1 -14 6 -23 10
-12 10 -15 -3 -15 -17 0 -40 24 -30 33 3 4 -4 7 -17 7 l-22 0 26 -35 c21 -27
23 -35 12 -35 -9 0 -16 3 -16 8 -1 18 -52 63 -80 68 -24 5 -30 3 -30 -11 0
-12 -5 -15 -16 -11 -9 3 -27 8 -40 11 -13 3 -36 7 -50 10 -15 4 -23 2 -20 -4
4 -5 2 -13 -4 -16 -14 -9 -90 4 -90 16 0 5 13 6 29 3 16 -3 31 -2 35 4 10 16
-85 5 -102 -12 -8 -8 -15 -28 -15 -45 0 -26 -5 -30 -36 -36 -22 -4 -37 -3 -39
4 -4 13 -118 15 -127 2 -3 -6 3 -14 12 -20 20 -12 13 -14 -34 -11 -27 1 -31
-1 -26 -19 4 -15 1 -21 -11 -21 -9 0 -16 6 -16 14 0 11 -8 12 -40 4 -22 -6
-40 -16 -40 -24 0 -7 -5 -16 -12 -20 -7 -5 -9 -2 -5 8 3 9 1 20 -5 26 -11 11
7 51 30 65 13 9 17 37 4 37 -4 0 -6 16 -4 35 3 21 0 35 -7 35 -14 0 -25 -45
-17 -66 5 -14 1 -16 -34 -11 -22 3 -43 1 -46 -4 -3 -5 0 -9 5 -9 26 0 6 -29
-59 -88 -38 -35 -74 -60 -80 -57 -5 3 -10 -1 -10 -9 0 -9 -8 -16 -17 -17 -11
0 -13 -3 -5 -6 17 -7 15 -23 -3 -23 -8 0 -15 -6 -15 -14 0 -8 -6 -16 -12 -19
-10 -3 -10 -7 0 -20 11 -13 10 -16 -10 -23 -32 -10 -46 -32 -54 -81 -3 -24 -9
-43 -13 -43 -6 0 -14 -75 -13 -125 1 -89 11 -185 22 -210 11 -28 15 -123 5
-133 -2 -3 -20 5 -39 16 -35 21 -80 21 -118 1 -10 -5 -18 -7 -18 -4 0 2 -23
-4 -52 -16 -38 -15 -53 -17 -58 -8 -5 7 -13 8 -21 3 -8 -5 -20 -9 -27 -10 -27
-5 -23 -13 9 -23 l34 -9 -33 -1 c-19 -1 -31 -5 -27 -11 4 -6 -9 -10 -33 -10
-42 0 -121 -33 -104 -44 14 -8 59 9 65 26 3 10 7 10 17 1 14 -13 77 -6 98 10
7 6 12 6 12 0 0 -6 -18 -18 -40 -28 -50 -23 -44 -33 7 -12 21 8 40 15 43 15 3
1 12 3 20 5 75 21 110 29 143 32 56 4 57 4 51 19 -3 7 2 16 10 19 19 8 48 -2
41 -13 -3 -5 0 -12 6 -16 7 -4 9 -3 5 4 -10 17 10 23 24 7 7 -8 9 -15 4 -15
-5 0 -1 -7 10 -15 10 -7 15 -19 11 -24 -7 -13 19 -43 29 -34 3 4 6 -1 6 -10 0
-10 -20 -27 -50 -42 -27 -14 -50 -28 -50 -31 0 -3 5 -2 11 2 6 4 25 10 43 14
17 4 40 11 50 16 15 6 17 4 10 -7 -5 -8 -9 -18 -9 -24 0 -5 -11 -12 -24 -13
-14 -2 -39 -14 -56 -27 -22 -18 -47 -25 -95 -28 -84 -6 -157 -25 -164 -43 -3
-8 -16 -14 -28 -15 -22 -1 -22 -1 2 -8 22 -7 21 -8 -18 -15 -24 -5 -56 -14
-70 -22 -25 -13 -22 -14 43 -9 144 12 174 17 186 31 6 8 9 14 5 14 -3 0 3 9
15 21 20 20 72 24 67 4 -2 -5 -6 -9 -9 -8 -4 1 -20 -11 -37 -26 -16 -16 -43
-37 -58 -47 -28 -18 -29 -18 -14 1 14 17 13 18 -3 12 -11 -4 -31 -10 -45 -13
-15 -4 -31 -12 -37 -18 -14 -17 -43 -27 -49 -17 -8 12 -53 1 -67 -15 -6 -8
-18 -14 -26 -14 -7 0 -16 -7 -20 -16 -3 -8 -12 -13 -20 -10 -8 3 -31 -6 -51
-20 l-37 -25 40 6 c57 8 73 14 126 46 44 28 76 38 65 21 -2 -4 -2 -13 2 -19 5
-8 21 -5 52 9 39 18 42 22 25 29 -11 4 -15 8 -8 8 6 1 18 4 27 7 26 10 20 -31
-6 -45 -19 -9 -14 -10 32 -6 43 5 52 4 43 -6 -6 -6 -25 -12 -41 -13 -17 -1
-28 -5 -24 -10 3 -5 -5 -6 -18 -3 -18 5 -32 -3 -63 -34 -22 -22 -43 -37 -46
-33 -3 3 7 16 24 29 35 29 30 39 -14 24 -18 -6 -35 -9 -38 -5 -4 3 2 6 12 6
14 0 16 3 8 11 -9 9 -21 6 -48 -10 -20 -11 -42 -21 -49 -21 -8 0 -19 -7 -26
-15 -15 -18 -41 -20 -38 -2 5 22 -63 11 -89 -16 -33 -32 -16 -41 30 -17 46 25
50 25 37 0 -9 -16 -8 -20 5 -20 21 0 19 -17 -5 -30 -11 -6 -20 -15 -20 -21 0
-5 12 -2 26 7 25 17 26 17 22 -2 -2 -10 -14 -28 -27 -40 -28 -24 -23 -36 20
-58 29 -14 30 -14 24 2 -5 13 -3 14 5 5 8 -7 22 -8 41 -3 16 5 29 5 29 1 0
-11 -26 -32 -36 -30 -15 4 -59 -18 -73 -35 -20 -24 -5 -32 19 -11 11 10 23 16
26 12 12 -12 -8 -27 -54 -41 -26 -8 -62 -20 -79 -27 -26 -11 -35 -11 -45 -1
-9 9 -7 12 13 12 19 0 21 2 9 10 -13 8 -13 10 1 10 9 0 22 6 29 14 10 13 7 13
-19 3 -17 -6 -31 -15 -31 -20 0 -4 -4 -6 -9 -3 -4 3 -25 -10 -46 -29 -22 -19
-42 -32 -45 -30 -11 7 -396 -399 -460 -485 -40 -54 -112 -140 -117 -140 -23 0
142 206 309 386 135 145 228 250 228 257 0 3 -16 -1 -36 -9 -55 -23 -65 -9
-11 15 27 12 60 24 73 27 31 8 52 43 33 55 -8 5 -24 9 -36 9 -12 0 -25 5 -28
11 -4 5 -12 8 -18 6 -7 -2 -20 0 -30 5 -13 6 -25 5 -40 -5 -12 -8 -33 -12 -46
-10 -13 2 -39 -6 -57 -18 -69 -42 -287 -355 -387 -554 -40 -80 -98 -188 -113
-210 -56 -80 69 177 165 340 30 50 93 150 142 223 48 72 82 132 76 132 -20 0
-85 -58 -93 -83 -6 -20 -8 -20 -13 -4 -6 16 -14 13 -71 -29 -200 -146 -380
-302 -547 -471 -101 -102 -183 -182 -183 -179 0 34 252 292 420 432 143 118
282 228 344 272 34 24 74 64 94 94 19 29 60 79 90 111 39 39 51 57 39 57 -9 0
-17 4 -17 9 0 4 11 6 25 3 27 -5 59 14 49 29 -3 5 -2 8 3 7 4 -1 19 2 33 7
l25 8 -29 8 c-83 23 -464 -164 -694 -340 -62 -47 -127 -95 -145 -105 l-32 -20
20 23 c35 41 157 136 275 215 105 71 479 266 509 266 7 0 9 5 5 12 -5 8 0 9
16 5 12 -3 30 -2 39 3 9 4 27 12 41 18 l25 9 -30 3 c-16 1 -48 1 -70 1 -29 0
-36 2 -25 9 8 5 31 10 51 10 25 0 39 5 43 16 10 25 2 27 -58 17 -49 -9 -54 -8
-44 5 11 13 9 14 -12 7 -14 -4 -33 -14 -43 -23 -9 -8 -32 -15 -50 -15 -121 2
-563 -223 -712 -362 -74 -69 -87 -76 -30 -16 59 63 197 169 261 200 54 27 53
38 0 16 -21 -9 -135 -48 -254 -87 -133 -43 -256 -90 -317 -121 -55 -29 -112
-52 -126 -53 -41 -2 -330 -186 -316 -201 3 -2 28 12 56 32 28 20 51 35 51 32
0 -9 -143 -110 -156 -110 -7 0 -12 -5 -11 -11 1 -6 -4 -10 -10 -9 -7 2 -12 -1
-10 -5 1 -4 -29 -35 -68 -69 -74 -64 -162 -155 -259 -268 -32 -38 -65 -70 -72
-71 -8 -1 -24 -13 -35 -26 l-20 -23 13 26 c7 15 63 82 125 150 310 342 553
524 868 649 41 16 107 46 146 66 39 19 74 33 77 30 3 -3 1 -6 -4 -6 -6 0 -19
-7 -30 -15 -18 -13 -17 -14 11 -6 135 40 356 123 520 196 33 15 127 51 210 81
155 57 229 94 189 94 -12 0 -41 -7 -64 -15 -23 -8 -50 -15 -59 -15 -26 0 6 18
69 37 30 9 48 18 39 20 -24 6 -441 -116 -462 -135 -21 -18 -33 -10 -19 13 5
10 53 62 107 116 54 55 95 99 92 99 -32 0 -450 -136 -612 -198 -542 -210
-1068 -459 -1301 -617 -69 -47 -127 -85 -130 -85 -2 0 -36 -31 -74 -68 -57
-55 -68 -71 -57 -81 10 -11 8 -13 -10 -8 -32 7 -30 -20 3 -35 17 -8 24 -18 21
-30 -4 -13 0 -18 14 -18 10 0 19 -5 19 -12 0 -9 3 -9 12 0 21 21 28 13 16 -15
-14 -32 -45 -63 -64 -63 -7 0 -36 -22 -64 -50 -44 -43 -49 -52 -40 -70 12 -23
32 -26 52 -8 34 33 97 68 121 68 14 0 30 8 36 17 8 15 10 14 16 -10 6 -22 3
-31 -12 -42 -27 -19 -37 -55 -15 -55 10 0 28 6 42 13 33 16 90 21 90 8 0 -6
-4 -11 -9 -11 -4 0 -6 -11 -3 -25 3 -19 -5 -36 -34 -69 -81 -91 -134 -155
-134 -162 0 -15 99 4 125 24 39 31 62 28 70 -8 4 -19 2 -36 -5 -45 -9 -11 -9
-15 -1 -15 6 0 11 5 11 11 0 6 8 8 20 4 11 -3 30 1 44 10 23 15 26 15 44 -3
24 -24 18 -72 -9 -79 -13 -4 -16 -10 -10 -26 7 -18 15 -21 54 -18 l47 3 0 -36
c0 -19 -7 -42 -16 -50 -10 -10 -11 -16 -3 -16 8 0 8 -4 -2 -16 -11 -13 -10
-17 4 -25 29 -17 20 -60 -23 -109 -34 -39 -37 -47 -25 -59 7 -8 28 -14 45 -13
17 0 28 -4 25 -9 -4 -5 5 -9 19 -9 18 0 24 -4 20 -14 -4 -11 6 -16 41 -21 43
-7 45 -9 30 -24 -19 -22 -20 -65 -1 -80 11 -9 12 -19 3 -49 -6 -20 -16 -40
-21 -44 -6 -4 2 -10 17 -13 15 -4 24 -11 21 -16 -3 -5 1 -9 8 -9 27 0 47 -38
46 -85 0 -25 2 -48 4 -50 6 -7 50 -9 67 -4 10 3 15 -8 17 -41 1 -24 7 -46 12
-48 5 -1 7 -14 4 -27 -3 -20 -1 -24 11 -19 12 4 14 1 10 -16 -4 -13 1 -28 13
-40 40 -41 46 -52 41 -80 -5 -24 -3 -27 13 -23 15 4 18 1 13 -16 -5 -18 -1
-21 25 -21 18 0 32 -6 36 -16 3 -8 10 -12 16 -9 5 3 10 0 10 -9 0 -8 6 -16 13
-19 8 -3 5 -10 -10 -21 -12 -9 -24 -30 -28 -46 -7 -34 -8 -34 -35 -18 -24 16
-35 6 -21 -20 6 -12 11 -33 11 -49 0 -19 3 -24 9 -15 4 8 19 12 31 10 23 -3
23 -3 -8 -35 -36 -36 -40 -45 -14 -36 15 6 15 3 -3 -18 -11 -13 -24 -27 -29
-31 -5 -3 -2 -13 7 -22 19 -20 13 -40 -25 -81 -24 -26 -28 -38 -28 -87 0 -31
3 -63 6 -72 6 -14 345 -16 3690 -16 l3684 0 0 1610 0 1610 -25 16 c-19 12 -23
20 -15 29 8 9 7 15 -2 19 -7 3 -1 4 15 2 l27 -3 0 173 c0 132 -3 174 -12 175
-19 2 -41 -1 -58 -8 -27 -11 -70 -14 -70 -5 0 11 45 52 90 82 48 33 50 36 50
111 0 55 -3 68 -17 74 -17 6 -17 7 0 19 20 15 23 52 5 59 -10 3 -10 7 0 20 8
9 11 20 8 26 -5 7 -148 56 -251 85 -145 41 -570 89 -880 100 -140 5 -148 5
-120 -10 16 -8 32 -18 35 -21 9 -10 -54 8 -68 20 -32 26 -227 11 -216 -16 3
-8 -20 -19 -67 -32 -79 -22 -97 -35 -46 -35 49 0 44 -28 -10 -51 -51 -22 -56
-33 -10 -24 l32 7 -24 -26 c-27 -29 -32 -25 74 -53 71 -19 97 -18 194 6 24 7
46 10 48 7 7 -7 -38 -28 -87 -41 l-44 -11 94 -54 c52 -30 115 -69 139 -88 34
-26 52 -32 80 -30 21 2 35 8 34 15 -2 8 9 10 34 6 30 -5 35 -4 30 9 -4 13 5
17 41 23 26 4 49 11 52 15 7 11 111 19 130 10 8 -4 47 -1 85 6 83 15 125 17
125 6 0 -4 -25 -21 -55 -37 -60 -31 -66 -40 -34 -50 19 -6 20 -8 3 -26 -9 -10
-23 -19 -31 -19 -8 0 -23 -5 -34 -11 -16 -8 -18 -13 -8 -25 9 -11 8 -14 -4
-14 -8 0 -18 6 -21 13 -3 9 -9 7 -19 -5 -8 -10 -23 -18 -33 -18 -10 -1 -30 -7
-44 -15 -28 -16 -60 -19 -60 -7 0 5 10 14 23 20 17 8 18 11 5 11 -10 1 -28 -9
-40 -21 -13 -13 -30 -21 -38 -20 -10 3 -8 -4 8 -20 29 -32 28 -44 -3 -24 -28
19 -55 21 -55 5 0 -6 -6 -9 -13 -6 -36 14 -61 -46 -27 -64 61 -32 219 -101
239 -104 13 -1 27 -9 32 -16 6 -10 27 -14 65 -13 42 1 53 -1 40 -8 -17 -9 -17
-11 0 -29 9 -11 54 -42 98 -71 145 -92 299 -219 461 -381 75 -75 82 -84 30
-38 -266 237 -330 290 -415 345 -150 99 -221 135 -251 129 -35 -7 -74 14 -60
31 12 14 -5 24 -166 92 -152 64 -159 64 -237 13 -36 -24 -66 -47 -66 -51 0 -4
32 -8 70 -8 40 0 70 -4 70 -10 0 -8 -141 -17 -175 -11 -5 1 -3 -5 5 -13 10
-11 45 -17 115 -21 161 -10 143 -19 -47 -25 -151 -4 -180 -8 -195 -22 -11 -11
-13 -18 -5 -18 16 0 16 -19 0 -25 -7 -2 -39 -11 -72 -20 -49 -14 -57 -19 -53
-36 3 -10 0 -19 -5 -19 -6 0 13 -19 42 -42 100 -81 105 -89 15 -29 -49 34 -96
61 -105 61 -9 0 -22 6 -30 13 -12 10 -12 9 -3 -3 7 -9 9 -21 5 -27 -8 -12 -62
-6 -62 7 0 4 -16 17 -35 29 -19 11 -35 16 -35 10 0 -6 -6 -9 -12 -6 -7 2 -12
10 -10 16 1 6 -3 11 -9 11 -5 0 -7 4 -4 10 3 5 -36 29 -87 53 -98 47 -154 65
-143 47 3 -5 -2 -10 -12 -10 -20 0 -45 14 -44 24 3 20 -2 25 -30 35 -54 19
-66 12 -20 -12 29 -14 38 -23 27 -25 -9 -2 -22 1 -29 6 -18 15 -125 44 -137
37 -5 -3 -7 0 -4 8 7 19 -48 41 -83 34 -16 -3 -55 1 -88 10 -33 9 -67 16 -77
15 -9 0 -24 9 -35 20 -18 21 -18 21 4 9 26 -13 46 -15 39 -2 -4 5 0 12 6 15 7
4 3 4 -9 2 -13 -2 -25 0 -28 5 -3 4 -12 6 -20 3 -8 -3 -25 3 -39 13 -28 20
-34 36 -11 27 8 -4 15 -1 15 5 0 8 6 9 19 2 19 -11 91 -3 91 9 0 4 -12 11 -27
15 -21 5 -24 8 -12 16 12 7 11 9 -3 9 -9 0 -19 -6 -21 -12 -4 -10 -6 -10 -6
-1 -1 6 4 15 9 18 18 11 10 26 -20 36 -16 6 -27 15 -24 21 3 5 0 9 -7 7 -28
-3 -49 1 -49 11 0 6 15 11 33 11 17 1 24 3 15 6 -10 2 -18 11 -18 19 0 17 -30
19 -30 2 -1 -8 -6 -6 -14 5 -7 9 -18 17 -25 17 -6 0 -11 5 -11 10 0 10 13 14
42 11 10 -1 26 2 35 8 15 9 13 10 -14 11 -17 0 -35 5 -38 10 -3 6 -23 10 -43
11 -30 0 -33 2 -17 9 14 6 2 8 -37 7 -32 -1 -53 -3 -48 -5 6 -2 10 -8 10 -13
0 -11 -49 -1 -67 13 -7 6 -20 7 -29 4 -14 -6 -15 1 -9 51 4 32 13 75 20 95 6
20 9 42 5 49 -4 6 -4 25 0 40 5 16 4 43 -1 61 -5 18 -7 46 -4 63 9 47 -48 222
-119 370 -40 81 -84 125 -127 125 -10 0 -19 6 -19 13 0 11 -86 57 -108 57 -6
0 -15 7 -20 16 -7 12 -180 99 -186 93 0 -1 -19 -7 -42 -13z m1188 -1465 c18
-17 40 -33 48 -36 8 -3 25 -20 38 -37 12 -18 47 -59 76 -92 l54 -58 75 6 c42
3 79 6 84 7 4 1 15 0 23 -1 24 -4 -40 -18 -87 -19 -24 0 -43 -5 -43 -9 0 -5
24 -19 53 -32 42 -19 67 -24 127 -22 61 1 71 -1 55 -10 -29 -17 -75 -65 -75
-78 0 -7 9 -9 23 -5 12 4 29 9 39 11 9 3 19 0 22 -5 9 -13 -26 -31 -60 -31
-38 0 -17 -21 26 -26 17 -2 39 -8 50 -14 10 -5 30 -10 45 -10 15 0 24 -4 20
-10 -3 -5 -16 -10 -27 -10 -36 0 -9 -14 60 -32 63 -16 64 -16 17 -11 -27 3
-60 10 -73 14 -24 9 -117 11 -94 2 24 -10 11 -24 -20 -22 -18 1 -55 -8 -82
-21 -49 -24 -49 -24 -23 -33 15 -5 25 -13 21 -18 -3 -5 8 -9 25 -9 16 0 33 -4
36 -10 4 -6 -10 -10 -34 -10 -21 0 -47 -3 -57 -7 -12 -4 -15 -3 -10 5 5 8 -2
12 -21 11 -15 -1 -21 -3 -12 -6 25 -6 11 -53 -19 -64 -14 -5 -46 -7 -71 -4
-25 3 -39 2 -31 -2 8 -3 17 -9 20 -12 10 -12 46 -29 78 -36 39 -8 43 -29 5
-21 -16 3 -46 8 -68 12 -40 7 -96 30 -105 44 -3 5 -16 10 -30 11 -14 2 -27 7
-30 11 -10 12 -80 21 -80 9 0 -6 8 -11 18 -11 11 0 30 -10 43 -21 l24 -22 -34
7 c-33 6 -34 6 -17 -13 10 -11 29 -22 43 -26 14 -3 23 -9 20 -12 -8 -7 68 -63
85 -63 7 -1 33 -12 58 -26 39 -22 41 -24 15 -19 -16 3 -51 17 -78 30 -26 13
-55 21 -64 18 -12 -5 -15 -2 -10 10 7 19 -8 33 -18 16 -4 -5 -13 -8 -21 -5 -9
3 -14 -1 -14 -13 0 -11 9 -21 22 -24 12 -4 20 -9 17 -11 -3 -3 -21 -1 -40 4
-40 12 -111 2 -86 -11 8 -5 27 -29 40 -54 l25 -44 -24 16 c-13 8 -24 19 -24
23 0 10 -50 31 -61 25 -15 -10 -10 -25 7 -25 9 0 14 -6 11 -12 -2 -7 8 -21 22
-31 l26 -19 -45 6 c-25 3 -54 8 -63 12 -9 3 -17 2 -17 -4 0 -21 44 -64 90 -87
56 -28 77 -51 33 -35 -31 12 -69 28 -95 41 -10 5 -27 9 -38 9 -12 0 -17 5 -14
14 6 16 -30 41 -75 51 -23 5 -31 4 -27 -4 4 -6 15 -11 25 -11 10 0 25 -8 32
-17 11 -13 11 -15 1 -9 -7 4 -28 10 -45 13 -18 3 -41 9 -52 15 -12 6 -7 -1 10
-17 25 -22 27 -26 9 -22 -12 2 -29 0 -38 -5 -11 -6 -22 -6 -32 3 -8 6 -17 9
-20 6 -3 -3 8 -13 24 -21 42 -22 50 -38 12 -25 -16 6 -33 15 -36 20 -3 5 -10
9 -15 9 -6 0 -7 -6 -2 -12 4 -7 -6 -5 -21 6 l-29 18 7 -28 c6 -23 5 -26 -7
-15 -8 6 -17 22 -19 35 -4 19 -1 22 14 18 10 -2 21 -8 24 -13 12 -20 26 -8 21
18 -5 25 17 65 60 111 7 7 16 25 20 40 3 15 14 34 25 43 10 9 18 20 18 23 0
19 27 33 44 24 12 -7 21 -7 29 1 8 8 8 11 -1 11 -7 0 -12 7 -12 15 0 8 8 15
17 15 13 0 14 3 5 12 -19 19 -15 27 23 42 19 8 35 21 35 29 0 8 7 17 15 21 8
3 15 13 15 23 0 20 35 47 50 38 5 -3 11 -1 14 4 3 5 -5 12 -19 15 -31 8 -32
20 0 51 29 30 45 32 45 6 0 -23 19 -32 43 -19 20 10 22 34 3 41 -10 4 -12 0
-8 -15 3 -15 1 -19 -9 -16 -8 2 -16 15 -17 28 -3 19 0 22 17 16 54 -16 65 -18
59 -11 -4 5 -3 14 3 22 9 10 8 13 -5 13 -9 0 -16 5 -16 10 0 6 9 10 19 10 11
0 23 5 27 11 3 6 16 8 28 5 13 -3 31 1 42 9 18 13 18 14 1 20 -9 4 -24 2 -31
-5 -11 -8 -20 -8 -34 -1 -13 7 -22 7 -30 -1 -9 -9 -12 -9 -12 -1 0 6 -3 18 -6
27 -6 14 -3 14 22 1 42 -22 65 -19 34 5 -22 17 -23 19 -7 25 9 4 24 2 31 -4
11 -9 16 -9 21 0 4 6 1 15 -6 20 -11 7 -10 9 5 9 11 0 17 3 13 6 -12 12 24 36
48 32 37 -8 36 12 -3 62 -68 87 -115 130 -149 136 -18 3 -36 11 -39 16 -4 6 2
8 15 3 12 -3 21 -2 21 4 0 11 -62 51 -81 51 -8 0 -22 7 -32 14 -16 13 -15 14
17 11 23 -2 47 -15 68 -34z m-2618 -353 c-16 -27 -140 -186 -181 -232 -24 -26
-43 -54 -43 -61 0 -8 -8 -16 -17 -20 -31 -10 -172 -212 -257 -368 -21 -38 -40
-67 -42 -64 -4 4 29 69 94 184 44 80 286 401 373 496 66 72 90 94 73 65z
m1887 -10 c15 23 43 29 55 11 4 -8 9 -7 15 2 7 11 15 8 34 -14 14 -15 25 -34
25 -42 0 -8 8 -20 19 -27 18 -13 37 -98 32 -143 -2 -17 0 -18 9 -5 8 11 10 -8
5 -75 -3 -49 -5 -164 -5 -254 1 -129 4 -166 15 -178 8 -8 15 -18 15 -22 0 -4
10 -13 23 -19 12 -6 17 -11 10 -11 -6 -1 -25 11 -42 25 l-31 26 0 -23 c0 -12
8 -31 17 -41 16 -18 16 -18 -1 -12 -16 6 -17 -2 -14 -127 3 -128 -14 -280 -33
-303 -5 -5 -15 -4 -24 4 -10 8 -15 9 -15 1 0 -6 3 -11 8 -11 4 0 13 -13 20
-29 17 -39 6 -108 -19 -114 -12 -3 -19 0 -19 10 0 8 4 12 9 9 5 -3 11 1 15 9
3 9 0 15 -10 15 -11 0 -13 6 -9 19 3 11 2 22 -3 25 -5 3 -15 26 -22 51 -9 33
-16 43 -24 36 -9 -8 -17 4 -30 43 -21 62 -18 109 4 63 8 -16 20 -27 29 -25 21
4 26 42 8 60 -8 8 -18 24 -22 36 -5 18 -10 20 -20 12 -9 -8 -14 -7 -19 5 -3 8
0 15 7 15 8 0 9 3 1 8 -16 10 -26 72 -12 72 6 0 1 8 -10 19 -23 19 -29 41 -13
41 6 0 13 -4 16 -10 9 -15 25 -12 25 5 0 28 -29 72 -51 78 -14 4 -20 11 -16
21 3 8 2 18 -4 21 -5 4 -7 11 -3 16 3 6 -2 19 -11 29 -9 10 -18 37 -20 60 -1
24 -9 46 -16 51 -11 7 -9 12 9 24 12 9 19 21 16 27 -4 6 -8 30 -10 52 -1 23
-5 79 -7 126 -3 47 -10 105 -16 130 -9 43 -12 150 -4 150 9 0 33 -29 33 -40 0
-6 5 -8 11 -5 6 4 8 22 4 46 -5 28 -2 46 11 69 18 30 18 30 30 8 l12 -22 13
22z"/>
<path d="M9785 4759 c-266 -18 -479 -57 -790 -141 -259 -71 -267 -89 -17 -36
152 32 164 33 392 32 193 0 262 -4 383 -23 81 -12 169 -29 195 -36 26 -8 48
-15 50 -15 1 0 2 52 2 115 l0 115 -52 -1 c-29 -1 -102 -5 -163 -10z"/>
<path d="M9155 4590 c-38 -5 -97 -15 -130 -23 l-60 -14 123 -6 c67 -4 180 -14
250 -22 119 -15 590 -89 640 -102 20 -5 22 -2 22 41 0 33 -5 48 -17 54 -19 10
-192 45 -308 62 -95 15 -434 21 -520 10z"/>
<path d="M8750 4500 c-158 -43 -237 -70 -253 -88 -11 -12 -29 -18 -47 -17 -17
1 -35 -4 -41 -12 -9 -10 -8 -13 5 -13 10 0 26 4 36 10 13 7 19 6 24 -5 3 -8 0
-15 -6 -15 -21 0 3 -15 113 -74 l107 -56 133 0 c188 0 553 -28 729 -56 76 -12
348 -75 433 -100 16 -5 17 7 17 158 l0 164 -142 27 c-79 15 -179 32 -223 37
-351 44 -442 53 -615 56 -172 4 -204 2 -270 -16z"/>
<path d="M8340 3939 c-11 -7 -12 -12 -3 -15 7 -3 10 -11 7 -17 -5 -15 153 -77
196 -77 17 0 30 -5 30 -11 0 -6 7 -8 16 -5 8 3 12 2 9 -4 -3 -6 4 -14 17 -19
13 -5 30 -16 37 -25 7 -9 21 -16 30 -16 9 0 29 -7 45 -15 15 -8 40 -15 54 -15
25 0 25 0 7 20 -52 57 -266 174 -302 165 -15 -3 -22 -1 -21 6 2 7 -19 18 -47
25 -60 16 -56 16 -75 3z"/>
<path d="M4025 3658 c-326 -36 -457 -52 -647 -78 -120 -17 -318 -44 -440 -60
-721 -99 -1031 -164 -1002 -212 3 -4 -1 -8 -8 -8 -8 0 -14 -8 -14 -19 0 -23
-12 -24 261 23 116 20 305 48 420 62 272 32 707 94 1010 144 132 22 317 49
410 60 122 15 189 28 237 47 106 41 98 53 -35 52 -62 -1 -148 -6 -192 -11z"/>
<path d="M2040 3625 c-84 -15 -112 -24 -108 -37 2 -5 7 -9 11 -9 4 1 16 -8 27
-19 11 -11 29 -20 40 -20 11 0 20 -4 20 -10 0 -5 -7 -10 -16 -10 -9 0 -25 -11
-36 -25 -11 -14 -33 -32 -49 -40 -28 -15 -42 -51 -16 -42 6 2 17 -3 23 -12 11
-13 21 -14 80 -3 362 65 451 78 1214 182 349 47 348 47 -70 46 -212 -1 -536 2
-720 5 -231 4 -355 2 -400 -6z"/>
<path d="M4040 3543 c-25 -2 -135 -18 -245 -34 -435 -65 -820 -119 -1025 -144
-371 -45 -756 -107 -770 -124 -3 -3 -18 -7 -35 -9 -16 -2 -35 -10 -41 -18 -6
-7 -18 -14 -26 -14 -8 0 -20 -12 -27 -26 -10 -23 -10 -26 4 -20 9 3 18 -1 21
-9 4 -8 10 -12 15 -9 5 3 9 -1 9 -10 0 -8 -6 -17 -12 -19 -8 -4 -4 -8 10 -12
27 -9 28 -25 2 -58 -11 -14 -20 -37 -20 -52 0 -26 2 -27 38 -21 77 15 90 15
101 2 8 -10 6 -19 -9 -37 -49 -58 -61 -67 -83 -63 -22 5 -22 5 -1 -5 34 -15
38 -30 13 -52 -12 -10 -26 -19 -30 -19 -4 0 -22 -20 -39 -44 -40 -59 -41 -111
-1 -73 11 10 14 9 18 -1 4 -10 9 -8 20 7 19 28 37 27 21 -1 -20 -34 -47 -58
-64 -58 -11 0 -14 -6 -9 -20 4 -12 0 -26 -9 -36 -15 -14 -22 -44 -12 -44 3 0
19 13 37 29 17 16 46 32 65 35 20 4 35 14 39 26 4 11 11 20 16 20 5 0 22 11
36 24 15 14 85 55 157 92 72 36 143 75 158 86 15 10 80 44 145 75 65 30 179
85 253 120 137 66 526 227 725 301 61 23 214 73 340 113 214 66 285 92 285
104 0 3 -6 4 -12 3 -7 -1 -33 -3 -58 -5z"/>
<path d="M4167 3510 c-105 -22 -118 -30 -225 -134 -117 -113 -118 -119 -19
-83 45 16 156 50 246 76 141 40 165 49 172 69 7 19 6 23 -9 20 -9 -2 -17 -10
-17 -17 0 -8 -6 -16 -13 -19 -8 -2 -10 2 -6 13 4 10 1 21 -7 26 -11 6 -6 12
19 21 46 18 40 31 -13 26 -44 -3 -62 6 -27 15 48 13 -23 4 -101 -13z"/>
</g>
</svg>
