<?xml version="1.0" standalone="no"?>
<!DOCTYPE svg PUBLIC "-//W3C//DTD SVG 20010904//EN"
 "http://www.w3.org/TR/2001/REC-SVG-20010904/DTD/svg10.dtd">
<svg version="1.0" xmlns="http://www.w3.org/2000/svg"
 width="654.000000pt" height="303.000000pt" viewBox="0 0 654.000000 303.000000"
 preserveAspectRatio="xMidYMid meet">
<metadata>
Created by potrace 1.14, written by Peter Selinger 2001-2017
</metadata>
<g transform="translate(0.000000,303.000000) scale(0.100000,-0.100000)"
fill="#000000" stroke="none">
<path d="M0 1515 l0 -1515 55 0 c54 0 55 0 55 30 0 25 4 30 23 30 28 0 47 -17
47 -42 0 -16 3 -16 20 -6 18 12 19 13 2 20 -14 5 -13 7 6 7 16 1 22 -5 22 -19
0 -11 5 -20 11 -20 5 0 9 8 7 18 -3 17 2 22 23 22 8 0 7 -5 -1 -15 -19 -22 -4
-31 26 -15 23 13 24 15 7 21 -16 7 -15 8 5 8 16 1 22 -5 22 -19 0 -37 20 -20
21 18 1 20 3 29 6 19 2 -9 13 -17 24 -17 12 0 19 -7 19 -20 0 -23 8 -25 33 -6
18 14 18 14 0 19 -14 4 -14 5 5 6 16 1 22 -5 22 -19 0 -11 6 -20 14 -20 9 0
12 7 9 20 -4 15 -1 20 13 19 12 0 14 -3 6 -6 -10 -4 -9 -8 5 -18 15 -11 20
-10 31 6 7 10 20 19 28 19 20 0 18 -28 -4 -33 -9 -3 -1 -5 18 -6 25 -1 39 5
48 19 7 11 20 20 30 20 16 -1 16 -1 -1 -11 -9 -5 -17 -14 -17 -19 0 -18 35
-10 48 10 16 26 42 26 49 0 3 -11 9 -20 14 -20 5 0 9 9 9 20 0 15 7 20 25 20
18 0 25 -5 25 -20 0 -11 5 -20 10 -20 6 0 10 9 10 20 0 15 7 20 25 20 19 0 25
-5 25 -22 l0 -22 16 22 c8 12 22 22 30 22 20 0 18 -28 -3 -33 -15 -4 -15 -5 2
-6 11 0 26 8 33 19 7 11 20 20 30 20 16 -1 16 -1 0 -11 -26 -15 -22 -29 8 -29
19 0 25 4 22 20 -2 10 0 19 5 20 28 1 31 0 19 -12 -16 -16 -15 -28 2 -28 8 0
17 10 19 23 4 21 4 21 6 -3 l1 -24 16 22 c19 27 44 28 51 2 7 -26 23 -26 23 0
0 15 7 20 25 20 18 0 25 -5 25 -20 0 -11 6 -20 14 -20 9 0 12 7 9 20 -4 15 -1
20 13 19 12 0 14 -3 6 -6 -10 -4 -9 -8 5 -19 26 -19 51 -17 63 6 6 11 17 20
25 20 7 0 16 8 18 17 3 10 5 0 6 -22 1 -39 1 -39 17 -17 8 12 22 22 30 22 20
0 18 -28 -3 -33 -11 -3 -7 -5 10 -6 22 -1 28 3 25 17 -3 19 1 22 23 22 8 0 7
-5 -1 -15 -7 -9 -10 -18 -6 -22 3 -4 13 3 22 15 8 12 22 22 30 22 20 0 18 -28
-3 -33 -15 -4 -15 -5 2 -6 11 0 26 8 33 19 7 11 20 20 30 20 16 -1 16 -1 0
-11 -26 -15 -22 -29 8 -29 18 0 24 5 22 17 -3 18 2 23 23 23 8 0 7 -5 -1 -15
-7 -9 -10 -18 -6 -22 3 -4 13 3 22 15 19 27 44 28 51 2 3 -11 9 -20 14 -20 5
0 9 9 9 20 0 12 7 20 17 20 13 0 14 -3 5 -12 -22 -22 -13 -28 38 -28 49 0 50
1 50 30 0 25 4 30 23 30 28 0 47 -17 47 -42 0 -16 3 -16 20 -6 18 12 19 13 2
20 -14 5 -13 7 6 7 16 1 22 -5 22 -19 0 -11 5 -20 11 -20 5 0 9 8 7 18 -3 17
2 22 23 22 8 0 7 -5 -1 -15 -19 -22 -4 -31 26 -15 23 13 24 15 7 21 -16 7 -15
8 5 8 16 1 22 -5 22 -19 0 -37 20 -20 21 18 1 20 3 29 6 20 2 -10 13 -18 24
-18 12 0 19 -7 19 -20 0 -23 8 -25 33 -6 18 14 18 14 0 19 -14 4 -14 5 5 6 16
1 22 -5 22 -19 0 -11 6 -20 14 -20 9 0 12 7 9 20 -4 15 -1 20 13 19 12 0 14
-3 6 -6 -10 -4 -9 -8 5 -18 15 -11 20 -10 31 6 7 10 20 19 28 19 20 0 18 -28
-3 -33 -10 -3 -2 -5 17 -6 25 -1 39 5 48 19 7 11 20 20 30 20 16 -1 16 -1 0
-11 -10 -5 -18 -14 -18 -19 0 -18 35 -10 48 10 16 26 42 26 49 0 7 -26 23 -26
23 0 0 15 7 20 25 20 18 0 25 -5 25 -20 0 -11 5 -20 10 -20 6 0 10 9 10 20 0
15 7 20 25 20 19 0 25 -5 25 -22 l0 -22 16 22 c8 12 22 22 30 22 20 0 18 -28
-3 -33 -15 -4 -15 -5 2 -6 11 0 26 8 33 19 7 11 20 20 30 20 16 -1 16 -1 0
-11 -26 -15 -22 -29 8 -29 19 0 25 4 22 20 -2 10 0 19 5 20 28 1 31 0 19 -12
-16 -16 -15 -28 2 -28 8 0 17 10 19 23 4 21 4 21 6 -3 l1 -24 16 22 c19 27 44
28 51 2 7 -26 23 -26 23 0 0 15 7 20 25 20 18 0 25 -5 25 -20 0 -15 7 -20 25
-20 18 0 25 5 25 20 0 15 7 20 25 20 18 0 25 -5 25 -20 0 -11 5 -20 10 -20 6
0 10 9 10 20 0 12 7 20 17 20 13 0 14 -3 5 -12 -16 -16 -15 -28 1 -28 7 0 18
9 25 20 16 26 42 26 49 0 7 -26 23 -26 23 0 0 15 7 20 25 20 19 0 25 -5 25
-22 l0 -22 16 22 c8 12 22 22 30 22 20 0 18 -28 -3 -33 -11 -3 -7 -5 10 -6 21
-1 27 4 27 19 0 12 7 20 17 20 13 0 14 -3 5 -12 -18 -18 -15 -28 9 -28 14 0
19 5 17 20 -2 10 0 19 5 20 28 1 31 0 19 -12 -16 -16 -15 -28 2 -28 8 0 17 10
19 23 4 21 4 21 6 -3 l1 -24 16 22 c8 12 22 22 30 22 20 0 18 -28 -3 -33 -10
-3 -4 -5 14 -6 26 -1 30 2 26 19 -4 15 -1 20 13 19 12 0 14 -3 6 -6 -10 -4 -9
-8 5 -19 23 -17 53 -17 76 0 18 14 18 14 0 19 -14 4 -14 5 5 6 16 1 22 -5 22
-19 0 -11 5 -20 10 -20 6 0 10 9 10 20 0 12 7 20 17 20 13 0 14 -3 5 -12 -16
-16 -15 -28 1 -28 7 0 18 9 25 20 7 11 19 20 27 20 21 0 19 -28 -2 -33 -10 -3
-1 -5 19 -6 28 -1 40 4 48 19 6 11 17 20 25 20 7 0 16 8 18 18 3 9 5 -1 6 -23
1 -39 1 -39 17 -17 8 12 22 22 30 22 20 0 18 -28 -3 -33 -11 -3 -7 -5 10 -6
22 -1 28 3 25 16 -3 18 2 23 23 23 8 0 7 -5 -1 -15 -7 -9 -10 -18 -6 -22 3 -4
13 3 22 15 8 12 22 22 30 22 20 0 18 -28 -3 -33 -15 -4 -15 -5 2 -6 11 0 26 8
33 19 7 11 20 20 30 20 16 -1 16 -1 0 -11 -26 -15 -22 -29 8 -29 18 0 24 5 22
17 -3 18 2 23 23 23 8 0 7 -5 -1 -15 -7 -9 -10 -18 -6 -22 3 -4 13 3 22 15 8
12 22 22 30 22 20 0 18 -28 -3 -33 -14 -4 -13 -5 4 -6 13 -1 27 7 33 19 6 11
17 20 25 20 7 0 16 8 18 18 3 9 5 0 6 -20 1 -38 1 -38 45 -38 40 0 45 3 55 32
6 17 13 29 16 26 3 -3 1 -17 -4 -32 -10 -24 -8 -26 13 -26 18 0 27 8 35 32 6
17 13 29 16 26 3 -3 1 -17 -4 -32 -10 -25 -9 -26 24 -26 32 0 35 2 35 30 0 25
4 30 23 30 28 0 47 -17 48 -44 1 -18 2 -17 9 4 8 24 8 24 9 3 1 -13 7 -23 15
-23 9 0 12 7 9 20 -4 15 -1 20 13 19 12 0 14 -3 6 -6 -10 -4 -9 -8 5 -18 15
-11 20 -10 31 6 7 10 21 19 30 19 16 -1 16 -1 0 -11 -10 -5 -18 -14 -18 -19 0
-18 35 -10 48 10 16 26 42 26 49 0 3 -11 10 -20 15 -20 5 0 7 10 3 23 -6 20
-5 21 8 5 17 -22 27 -23 27 -3 0 8 4 15 9 15 5 0 7 -10 4 -22 l-5 -23 16 23
c10 12 24 22 32 22 20 0 18 -28 -3 -33 -11 -3 -7 -5 10 -6 21 -1 27 4 27 19 0
12 7 20 17 20 13 0 14 -3 5 -12 -7 -7 -12 -16 -12 -20 0 -13 64 -8 83 6 18 14
18 14 0 19 -14 4 -14 5 5 6 16 1 22 -5 22 -19 0 -11 5 -20 10 -20 6 0 10 9 10
20 0 31 50 28 51 -2 l0 -23 16 22 c8 13 21 23 28 23 8 0 16 8 18 18 3 9 5 0 6
-20 1 -35 3 -38 30 -38 24 0 28 3 24 20 -4 15 -1 20 13 19 12 0 14 -3 6 -6
-10 -4 -9 -8 5 -18 15 -11 20 -10 31 6 7 10 20 19 28 19 20 0 18 -28 -3 -33
-11 -3 -7 -5 10 -6 23 -1 28 3 25 19 -2 10 0 19 5 20 28 1 31 0 19 -12 -16
-16 -15 -28 2 -28 8 0 17 10 19 22 l4 23 2 -22 c1 -30 28 -30 34 0 l4 22 2
-22 c1 -28 21 -31 21 -3 0 15 7 20 25 20 18 0 25 -5 25 -20 0 -15 7 -20 25
-20 18 0 25 5 25 20 0 15 7 20 25 20 19 0 25 -5 25 -22 l0 -22 16 22 c8 12 22
22 30 22 20 0 18 -28 -3 -33 -11 -3 -7 -5 10 -6 25 -1 28 2 22 22 -6 20 -5 21
8 4 14 -16 15 -16 21 -1 6 16 8 15 21 -2 13 -17 14 -17 15 -1 0 9 4 17 9 17 5
0 7 -9 4 -20 -7 -27 23 -27 37 0 6 11 17 20 25 20 7 0 16 8 18 18 3 9 5 0 6
-20 1 -41 6 -45 34 -24 18 14 18 14 0 19 -14 4 -14 5 5 6 16 1 22 -5 22 -19 0
-11 5 -20 11 -20 5 0 9 9 7 20 -2 10 0 19 5 20 27 1 29 -1 17 -15 -19 -22 -4
-31 26 -15 23 13 24 15 7 21 -16 7 -15 8 5 8 16 1 22 -5 22 -19 0 -15 7 -20
29 -20 24 0 28 3 24 20 -4 15 -1 20 13 19 12 0 14 -3 6 -6 -10 -4 -9 -8 5 -18
15 -11 20 -10 31 6 17 25 42 24 49 -1 7 -27 21 -25 26 2 l4 23 2 -22 c1 -30
28 -30 34 -1 l4 23 2 -22 c1 -28 21 -31 21 -3 0 12 7 20 17 20 13 0 14 -3 5
-12 -16 -16 -15 -28 1 -28 7 0 18 9 25 20 7 11 20 20 30 20 16 -1 16 -1 0 -11
-10 -5 -18 -14 -18 -19 0 -18 35 -10 48 10 7 11 19 20 27 20 21 0 19 -28 -2
-33 -10 -3 -4 -5 14 -6 26 -1 30 2 26 19 -4 15 -1 20 13 19 12 0 14 -3 6 -6
-23 -9 20 -32 61 -33 33 0 37 3 37 24 0 14 4 28 10 31 6 4 7 -6 3 -26 -5 -27
-3 -31 13 -27 19 3 19 40 22 1516 l2 1512 -3270 0 -3270 0 0 -1515z"/>
</g>
</svg>
